<svg width="15" height="15" viewBox="0 0 15 15" fill="none" xmlns="http://www.w3.org/2000/svg">
<path fill-rule="evenodd" clip-rule="evenodd" d="M14.2499 13.2728C14.2499 13.689 13.9126 14.0263 13.4965 14.0263H10.0181V8.73957H11.7925L12.0583 6.67896H10.0181V5.3636C10.0181 4.7671 10.184 4.36063 11.0392 4.36063L12.1301 4.35988V2.51719C11.9416 2.49191 11.2939 2.43612 10.5405 2.43612C8.96773 2.43612 7.89093 3.39633 7.89093 5.15943V6.67896H6.11213V8.73957H7.89093V14.0263H1.35317C0.937097 14.0263 0.599854 13.689 0.599854 13.2728V1.12746C0.599854 0.711323 0.937097 0.374023 1.35317 0.374023H13.4965C13.9126 0.374023 14.2499 0.711323 14.2499 1.12746V13.2728" fill="#E0E2E3"/>
</svg>
