<svg width="16" height="18" viewBox="0 0 16 18" fill="none" xmlns="http://www.w3.org/2000/svg">
<path fill-rule="evenodd" clip-rule="evenodd" d="M6.58758 3.99437C6.25722 4.01005 6.00203 4.2909 6.01752 4.62191C6.02502 4.78121 6.09546 4.93086 6.21336 5.03804L9.86855 8.40041H0.630772C0.6099 8.39943 0.589191 8.39943 0.568319 8.40041C0.254752 8.41675 -0.0156048 8.71737 0.000701361 9.03172C0.0171706 9.34573 0.317204 9.61678 0.630772 9.60028H9.86855L6.21336 12.9564C5.95931 13.1687 5.92523 13.5471 6.13721 13.8016C6.34902 14.056 6.72668 14.0903 6.98056 13.8779C6.99573 13.8652 7.0104 13.8518 7.02426 13.8377L11.8147 9.43788C12.0575 9.2129 12.0723 8.83321 11.8478 8.58994C11.8372 8.5785 11.8261 8.56739 11.8147 8.55661L7.02426 4.15693C6.90653 4.04583 6.74901 3.98734 6.58758 3.99437ZM10.5484 0.000857748C10.2177 0.0180127 9.96362 0.300661 9.98074 0.631997C9.99802 0.963332 10.2801 1.21804 10.6108 1.20072H14.8025V16.8H10.6108C10.2801 16.7954 10.0081 17.0602 10.0036 17.3916C9.99884 17.7229 10.2632 17.9953 10.5938 18C10.5996 18 10.6051 18 10.6108 18H15.4012C15.7319 18 16 17.7314 16 17.4001V0.600791C16 0.269455 15.7319 0.000857748 15.4012 0.000857748H10.6108C10.5899 -0.000285916 10.5692 -0.000285916 10.5484 0.000857748Z" fill="#6F757B"/>
</svg>
