<svg width="16" height="17" viewBox="0 0 16 17" fill="none" xmlns="http://www.w3.org/2000/svg">
<path opacity="0.8" d="M2.125 14.625C2.6875 15.25 3.375 15.6562 4.1875 15.8438C5 16.0625 5.78125 16.0625 6.59375 15.8438C7.375 15.6562 8.0625 15.25 8.6875 14.625L14.7812 8.5C14.8438 8.4375 14.9062 8.375 14.9062 8.25C14.9062 8.15625 14.8438 8.0625 14.7812 7.96875L14.25 7.4375C14.1875 7.375 14.0938 7.34375 14 7.34375C13.875 7.34375 13.7812 7.375 13.7188 7.4375L7.625 13.5625C7 14.1875 6.25 14.5 5.375 14.5C4.5 14.5 3.78125 14.2188 3.15625 13.5938C2.53125 12.9688 2.25 12.25 2.25 11.375C2.25 10.5 2.53125 9.75 3.15625 9.125L10.1875 2.09375C10.5938 1.71875 11.0938 1.5 11.6562 1.5C12.2188 1.5 12.7188 1.71875 13.125 2.125C13.5312 2.53125 13.75 3.03125 13.75 3.59375C13.75 4.15625 13.5312 4.65625 13.1562 5.03125L7.21875 10.9688C7.03125 11.1562 6.78125 11.25 6.5 11.25C6.21875 11.25 5.96875 11.1562 5.78125 10.9688C5.5625 10.7812 5.46875 10.5312 5.46875 10.25C5.46875 9.96875 5.5625 9.71875 5.78125 9.53125L10.7812 4.5C10.8438 4.4375 10.9062 4.375 10.9062 4.25C10.9062 4.15625 10.8438 4.0625 10.7812 3.96875L10.25 3.4375C10.1875 3.375 10.0938 3.34375 10 3.34375C9.875 3.34375 9.8125 3.375 9.75 3.4375L4.71875 8.46875C4.21875 8.96875 3.96875 9.5625 3.96875 10.25C3.96875 10.9375 4.21875 11.5312 4.71875 12.0312C5.21875 12.5312 5.8125 12.75 6.5 12.75C7.1875 12.75 7.78125 12.5312 8.28125 12.0312L14.1875 6.09375C14.625 5.65625 14.9375 5.125 15.125 4.5C15.2812 3.875 15.2812 3.28125 15.125 2.65625C14.9375 2.03125 14.625 1.5 14.1875 1.0625C13.7188 0.625 13.1875 0.3125 12.5625 0.125C11.9375 -0.03125 11.3438 -0.03125 10.7188 0.125C10.0938 0.3125 9.59375 0.59375 9.15625 1.03125L2.125 8.09375C1.5 8.6875 1.09375 9.375 0.90625 10.1562C0.6875 10.9688 0.6875 11.75 0.90625 12.5625C1.09375 13.375 1.5 14.0625 2.125 14.625Z" fill="#6F757B"/>
</svg>
