<svg width="11" height="6" viewBox="0 0 11 6" fill="none" xmlns="http://www.w3.org/2000/svg">
<path fill-rule="evenodd" clip-rule="evenodd" d="M5.31042 5.33472H5.86877C5.86877 5.33472 6.03739 5.3161 6.12361 5.22332C6.20285 5.13804 6.20032 4.97801 6.20032 4.97801C6.20032 4.97801 6.1894 4.22871 6.53706 4.11833C6.87992 4.0096 7.32009 4.84256 7.7866 5.16285C8.13939 5.40519 8.40748 5.35212 8.40748 5.35212L9.65501 5.33472C9.65501 5.33472 10.3076 5.29442 9.99814 4.78127C9.97281 4.73932 9.81788 4.40167 9.07054 3.70787C8.28824 2.98169 8.39311 3.09918 9.33538 1.84308C9.90922 1.07812 10.1386 0.611135 10.0669 0.411102C9.9986 0.220544 9.57653 0.270881 9.57653 0.270881L8.17193 0.2796C8.17193 0.2796 8.06772 0.265387 7.99054 0.311612C7.91505 0.356751 7.8666 0.462295 7.8666 0.462295C7.8666 0.462295 7.6442 1.05424 7.34782 1.55771C6.72236 2.61989 6.47223 2.67612 6.36999 2.61009C6.13209 2.45634 6.19157 1.99258 6.19157 1.66299C6.19157 0.63354 6.34769 0.204357 5.88756 0.0932531C5.73489 0.056372 5.62243 0.0319929 5.23193 0.0280449C4.73072 0.0229125 4.30661 0.0295912 4.06641 0.147242C3.90661 0.225545 3.78332 0.399883 3.85845 0.409951C3.95131 0.422321 4.16151 0.466703 4.27295 0.618373C4.41693 0.814294 4.4119 1.2541 4.4119 1.2541C4.4119 1.2541 4.49463 2.46589 4.21871 2.6164C4.02944 2.71964 3.7697 2.50885 3.21204 1.54514C2.92641 1.05154 2.71066 0.505822 2.71066 0.505822C2.71066 0.505822 2.66911 0.403864 2.5949 0.34925C2.5049 0.283153 2.37914 0.262163 2.37914 0.262163L1.04434 0.270881C1.04434 0.270881 0.844015 0.276507 0.770397 0.363627C0.704904 0.441206 0.765167 0.601496 0.765167 0.601496C0.765167 0.601496 1.8101 3.04671 2.99339 4.27892C4.07848 5.40888 5.31042 5.33472 5.31042 5.33472" fill="#384047"/>
</svg>
