<svg width="19" height="12" viewBox="0 0 19 12" fill="none" xmlns="http://www.w3.org/2000/svg">
<path d="M0 1C0 0.447715 0.447715 0 1 0H18C18.5523 0 19 0.447715 19 1V11C19 11.5523 18.5523 12 18 12H1C0.447715 12 0 11.5523 0 11V1Z" fill="#DE2910"/>
<path d="M2.28004 5.2725L3.56252 1.425L4.84501 5.2725L1.42505 2.92125H5.7L2.28004 5.2725Z" fill="#FFDE00"/>
<path d="M7.84254 1.49874L6.5227 1.79123L7.40308 0.765325L7.31674 2.14605L6.58431 0.923693L7.84254 1.49874Z" fill="#FFDE00"/>
<path d="M9.17464 3.18687L7.84468 2.94457L9.05402 2.34042L8.43894 3.57959L8.23792 2.16884L9.17464 3.18687Z" fill="#FFDE00"/>
<path d="M8.98048 5.55525L7.86498 4.79159L9.21557 4.73321L8.14859 5.61376L8.54041 4.24369L8.98048 5.55525Z" fill="#FFDE00"/>
<path d="M7.30282 7.10246L6.56882 5.96721L7.83716 6.43501L6.51288 6.83513L7.40345 5.7227L7.30282 7.10246Z" fill="#FFDE00"/>
</svg>
