<svg width="19" height="12" viewBox="0 0 19 12" fill="none" xmlns="http://www.w3.org/2000/svg">
<path fill-rule="evenodd" clip-rule="evenodd" d="M0 1C0 0.447715 0.447715 0 1 0H18C18.5523 0 19 0.447715 19 1V11C19 11.5523 18.5523 12 18 12H0.999999C0.447714 12 0 11.5523 0 11V1Z" fill="white"/>
<path fill-rule="evenodd" clip-rule="evenodd" d="M0 1C0 0.447715 0.447715 0 1 0H6.33234V12H1C0.447716 12 0 11.5523 0 11V1Z" fill="#00267F"/>
<path fill-rule="evenodd" clip-rule="evenodd" d="M12.6676 0H17.9999C18.5522 0 18.9999 0.447715 18.9999 1V11C18.9999 11.5523 18.5522 12 17.9999 12H12.6676V0Z" fill="#F31830"/>
</svg>
