<svg width="19" height="12" viewBox="0 0 19 12" fill="none" xmlns="http://www.w3.org/2000/svg">
<mask id="mask0" mask-type="alpha" maskUnits="userSpaceOnUse" x="0" y="0" width="19" height="12">
<rect width="19" height="12" rx="0.935673" fill="#C4C4C4"/>
</mask>
<g mask="url(#mask0)">
<path fill-rule="evenodd" clip-rule="evenodd" d="M0 0H19V0.923438H0V0ZM0 1.84688H19V2.77031H0V1.84688ZM0 3.69141H19V4.61719H0V3.69141ZM0 5.53828H19V6.46172H0V5.53828ZM0 7.38516H19V8.30859H0V7.38516ZM0 9.22969H19V10.1531H0V9.22969ZM0 11.0766H19V12H0V11.0766Z" fill="#BD3D44"/>
<path fill-rule="evenodd" clip-rule="evenodd" d="M-0.222168 0.923436H22.5778V1.84687H-0.222168V0.923436ZM-0.222168 2.77031H22.5778V3.6914H-0.222168V2.77031ZM-0.222168 4.61484H22.5778V5.53828H-0.222168V4.61484ZM-0.222168 6.46172H22.5778V7.38515H-0.222168V6.46172ZM-0.222168 8.30859H22.5778V9.23203H-0.222168V8.30859ZM-0.222168 10.1531H22.5778V11.0766H-0.222168V10.1531Z" fill="white"/>
<path fill-rule="evenodd" clip-rule="evenodd" d="M-0.222168 0H8.89736V6.46172H-0.222168V0Z" fill="#192F5D"/>
<path fill-rule="evenodd" clip-rule="evenodd" d="M0.537109 0.276559L0.621484 0.532027H0.888672L0.673047 0.689059L0.755078 0.946871L0.537109 0.787496L0.321484 0.944527L0.403516 0.689059L0.185547 0.532027H0.457422L0.537109 0.276559ZM2.0582 0.276559L2.14023 0.532027H2.40977L2.1918 0.689059L2.27383 0.946871L2.0582 0.787496L1.84023 0.944527L1.92227 0.689059L1.70664 0.532027H1.97383L2.0582 0.276559ZM3.57695 0.276559L3.66133 0.532027H3.92617L3.71055 0.689059L3.79258 0.946871L3.57461 0.787496L3.35898 0.944527L3.44102 0.689059L3.22305 0.532027H3.49258L3.57695 0.276559ZM5.09805 0.276559L5.18008 0.532027H5.44961L5.23164 0.689059L5.31602 0.946871L5.09805 0.787496L4.88008 0.944527L4.96445 0.689059L4.74648 0.532027H5.01367L5.09805 0.276559ZM6.6168 0.276559L6.70117 0.532027H6.96836L6.75273 0.689059L6.83477 0.946871L6.6168 0.787496L6.40117 0.944527L6.4832 0.689059L6.26758 0.532027H6.53477L6.6168 0.276559ZM8.13789 0.276559L8.21992 0.532027H8.48945L8.27148 0.689059L8.35586 0.946871L8.13789 0.787496L7.91992 0.944527L8.0043 0.689059L7.78633 0.532027H8.05586L8.13789 0.276559ZM1.29883 0.923434L1.38086 1.1789H1.65039L1.43242 1.33593L1.51211 1.5914L1.30117 1.43437L1.0832 1.5914L1.16055 1.33593L0.949609 1.1789H1.2168L1.29883 0.923434ZM2.81758 0.923434L2.90195 1.1789H3.16914L2.95117 1.33593L3.03555 1.5914L2.81758 1.43437L2.59961 1.5914L2.68398 1.33593L2.46602 1.1789H2.73555L2.81758 0.923434ZM4.33867 0.923434L4.4207 1.1789H4.69023L4.47227 1.33593L4.5543 1.5914L4.33867 1.43437L4.1207 1.5914L4.20273 1.33593L3.98711 1.1789H4.2543L4.33867 0.923434ZM5.85742 0.923434L5.9418 1.1789H6.20898L5.99102 1.33593L6.07539 1.5914L5.85742 1.43437L5.6418 1.5914L5.72383 1.33593L5.50586 1.1789H5.77773L5.85742 0.923434ZM7.37852 0.923434L7.46055 1.1789H7.73008L7.51211 1.33593L7.59414 1.5914L7.37852 1.43437L7.16055 1.5914L7.24258 1.33593L7.02695 1.1789H7.29414L7.37852 0.923434ZM0.537109 1.56796L0.621484 1.82812H0.888672L0.673047 1.98515L0.755078 2.24062L0.537109 2.08125L0.321484 2.24062L0.403516 1.98281L0.185547 1.82578H0.457422L0.537109 1.56796ZM2.0582 1.56796L2.14023 1.82578H2.40977L2.1918 1.98281L2.27383 2.23828L2.0582 2.0789L1.84023 2.23828L1.92227 1.98046L1.70664 1.82343H1.97383L2.0582 1.56796ZM3.57695 1.56796L3.66133 1.82578H3.92617L3.71055 1.98281L3.79258 2.23828L3.57461 2.0789L3.35898 2.23828L3.44102 1.98046L3.22305 1.82343H3.49258L3.57695 1.56796ZM5.09805 1.56796L5.18008 1.82578H5.44961L5.23164 1.98281L5.31602 2.23828L5.09805 2.0789L4.88008 2.23828L4.96445 1.98046L4.74648 1.82343H5.01367L5.09805 1.56796ZM6.6168 1.56796L6.70117 1.82578H6.96836L6.75273 1.98281L6.83477 2.23828L6.6168 2.0789L6.40117 2.23828L6.4832 1.98046L6.26758 1.82343H6.53477L6.6168 1.56796ZM8.13789 1.56796L8.21992 1.82578H8.48945L8.27148 1.98281L8.35586 2.23828L8.13789 2.0789L7.91992 2.23828L8.0043 1.98046L7.78633 1.82343H8.05586L8.13789 1.56796ZM1.29883 2.21484L1.38086 2.47031H1.65039L1.43242 2.62734L1.51445 2.88515L1.29883 2.72578L1.08086 2.88281L1.16289 2.62734L0.947266 2.47031H1.21445L1.29883 2.21484ZM2.81758 2.21484L2.90195 2.47031H3.16914L2.95117 2.62734L3.03555 2.88515L2.81758 2.72578L2.59961 2.88281L2.68398 2.62734L2.46602 2.47031H2.73555L2.81758 2.21484ZM4.33867 2.21484L4.4207 2.47031H4.69023L4.47227 2.62734L4.5543 2.88515L4.33867 2.72578L4.1207 2.88281L4.20273 2.62734L3.98711 2.47031H4.2543L4.33867 2.21484ZM5.85742 2.21484L5.9418 2.47031H6.20898L5.99336 2.62734L6.07539 2.88515L5.85742 2.72578L5.6418 2.88281L5.72383 2.62734L5.50586 2.47031H5.77773L5.85742 2.21484ZM7.37852 2.21484L7.46055 2.47031H7.73008L7.51211 2.62734L7.59414 2.88515L7.37852 2.72578L7.16055 2.88281L7.24258 2.62734L7.02695 2.47031H7.29414L7.37852 2.21484ZM0.537109 2.86171L0.621484 3.11718H0.888672L0.673047 3.27421L0.755078 3.53203L0.537109 3.37265L0.321484 3.52968L0.403516 3.27421L0.185547 3.11718H0.457422L0.537109 2.86171ZM2.0582 2.86171L2.14023 3.11718H2.40977L2.1918 3.27421L2.27383 3.52968L2.0582 3.37265L1.84023 3.52968L1.92227 3.27421L1.70664 3.11718H1.97383L2.0582 2.86171ZM3.57695 2.86171L3.66133 3.11718H3.92617L3.71055 3.27421L3.79258 3.53203L3.57461 3.37265L3.35898 3.52968L3.44102 3.27421L3.22305 3.11718H3.49258L3.57695 2.86171ZM5.09805 2.86171L5.18008 3.11718H5.44961L5.23164 3.27421L5.31602 3.53203L5.09805 3.37265L4.88008 3.52968L4.96445 3.27421L4.74648 3.11718H5.01367L5.09805 2.86171ZM6.6168 2.86171L6.70117 3.11718H6.96836L6.75273 3.27421L6.83477 3.53203L6.6168 3.37265L6.40117 3.52968L6.4832 3.27421L6.26758 3.11718H6.53477L6.6168 2.86171ZM8.13789 2.86171L8.21992 3.11718H8.48945L8.27148 3.27421L8.35586 3.53203L8.13789 3.37265L7.91992 3.52968L8.0043 3.27421L7.78633 3.11718H8.05586L8.13789 2.86171ZM1.29883 3.50859L1.38086 3.76406H1.65039L1.43242 3.92109L1.51445 4.17656L1.29883 4.01718L1.08086 4.17656L1.16289 3.91874L0.947266 3.76171H1.21445L1.29883 3.50859ZM2.81758 3.50859L2.90195 3.76406H3.16914L2.95117 3.92109L3.03555 4.17656L2.81758 4.01718L2.59961 4.17656L2.68398 3.91874L2.46602 3.76171H2.73555L2.81758 3.50859ZM4.33867 3.50859L4.4207 3.76406H4.69023L4.47227 3.92109L4.5543 4.17656L4.33867 4.01718L4.1207 4.17656L4.20273 3.91874L3.98711 3.76171H4.2543L4.33867 3.50859ZM5.85742 3.50859L5.9418 3.76406H6.20898L5.99336 3.92109L6.07539 4.17656L5.85742 4.01718L5.6418 4.17656L5.72383 3.91874L5.50586 3.76171H5.77773L5.85742 3.50859ZM7.37852 3.50859L7.46055 3.76406H7.73008L7.51211 3.92109L7.59414 4.17656L7.37852 4.01718L7.16055 4.17656L7.24258 3.91874L7.02695 3.76171H7.29414L7.37852 3.50859ZM0.537109 4.15312L0.621484 4.41093H0.888672L0.673047 4.56796L0.755078 4.82109L0.537109 4.66406L0.321484 4.82109L0.403516 4.56562L0.185547 4.40859H0.457422L0.537109 4.15312ZM2.0582 4.15312L2.14023 4.41093H2.40977L2.1918 4.56796L2.27617 4.82109L2.0582 4.66406L1.84023 4.82109L1.92461 4.56562L1.70664 4.40859H1.97383L2.0582 4.15312ZM3.57695 4.15312L3.66133 4.41093H3.92617L3.71055 4.56796L3.79258 4.82109L3.57461 4.66406L3.35898 4.82109L3.44102 4.56562L3.22305 4.40859H3.49258L3.57695 4.15312ZM5.09805 4.15312L5.18008 4.41093H5.44961L5.23164 4.56796L5.31602 4.82109L5.09805 4.66406L4.88008 4.82109L4.96445 4.56562L4.74648 4.40859H5.01367L5.09805 4.15312ZM6.6168 4.15312L6.70117 4.41093H6.96836L6.75273 4.56796L6.83477 4.82109L6.6168 4.66406L6.40117 4.82109L6.4832 4.56562L6.26758 4.40859H6.53477L6.6168 4.15312ZM8.13789 4.15312L8.21992 4.41093H8.48945L8.27148 4.56796L8.35586 4.82109L8.13789 4.66406L7.91992 4.82109L8.0043 4.56562L7.78633 4.40859H8.05586L8.13789 4.15312ZM1.29883 4.79999L1.38086 5.05546H1.65039L1.43242 5.21249L1.51445 5.47031L1.29883 5.31093L1.08086 5.46796L1.16289 5.21249L0.947266 5.05546H1.21445L1.29883 4.79999ZM2.81758 4.79999L2.90195 5.05546H3.16914L2.95117 5.21249L3.03555 5.47031L2.81758 5.31093L2.59961 5.46796L2.68398 5.21249L2.46602 5.05546H2.73555L2.81758 4.79999ZM4.33867 4.79999L4.4207 5.05546H4.69023L4.47227 5.21249L4.5543 5.47031L4.33867 5.31093L4.1207 5.46796L4.20273 5.21249L3.98711 5.05546H4.2543L4.33867 4.79999ZM5.85742 4.79999L5.9418 5.05546H6.20898L5.99336 5.21249L6.07539 5.47031L5.85742 5.31093L5.6418 5.46796L5.72383 5.21249L5.50586 5.05546H5.77773L5.85742 4.79999ZM7.37852 4.79999L7.46055 5.05546H7.73008L7.51211 5.21249L7.59414 5.47031L7.37852 5.31093L7.16055 5.46796L7.24258 5.21249L7.02695 5.05546H7.29414L7.37852 4.79999ZM0.537109 5.44687L0.621484 5.70234H0.888672L0.673047 5.85937L0.755078 6.11484L0.537109 5.95781L0.321484 6.11484L0.403516 5.85702L0.185547 5.69999H0.457422L0.537109 5.44687ZM2.0582 5.44687L2.14023 5.70234H2.40977L2.1918 5.85937L2.27617 6.11484L2.0582 5.95781L1.84023 6.11484L1.92461 5.85702L1.70664 5.69999H1.97383L2.0582 5.44687ZM3.57695 5.44687L3.66133 5.70234H3.92617L3.71523 5.85937L3.79727 6.11484L3.5793 5.95781L3.36367 6.11484L3.4457 5.85702L3.22773 5.69999H3.49727L3.57695 5.44687ZM5.09805 5.44687L5.18008 5.70234H5.44961L5.23164 5.85937L5.31602 6.11484L5.09805 5.95781L4.88008 6.11484L4.96445 5.85702L4.74648 5.69999H5.01367L5.09805 5.44687ZM6.6168 5.44687L6.70117 5.70234H6.96836L6.75273 5.85937L6.83477 6.11484L6.6168 5.95781L6.40117 6.11484L6.4832 5.85702L6.26758 5.69999H6.53477L6.6168 5.44687ZM8.13789 5.44687L8.21992 5.70234H8.48945L8.27148 5.85937L8.35586 6.11484L8.13789 5.95781L7.91992 6.11484L8.0043 5.85702L7.78633 5.69999H8.05586L8.13789 5.44687Z" fill="white"/>
</g>
</svg>
