<svg width="54" height="54" viewBox="0 0 54 54" fill="none" xmlns="http://www.w3.org/2000/svg">
<rect width="54" height="54" rx="4" fill="#C4C4C4"/>
<mask id="mask0" mask-type="alpha" maskUnits="userSpaceOnUse" x="0" y="0" width="54" height="54">
<rect width="54" height="54" rx="4" fill="#C4C4C4"/>
</mask>
<g mask="url(#mask0)">
<path fill-rule="evenodd" clip-rule="evenodd" d="M-1 0H101.6V4.15547H-1V0ZM-1 8.31094H101.6V12.4664H-1V8.31094ZM-1 16.6113H101.6V20.7773H-1V16.6113ZM-1 24.9223H101.6V29.0777H-1V24.9223ZM-1 33.2332H101.6V37.3887H-1V33.2332ZM-1 41.5336H101.6V45.6891H-1V41.5336ZM-1 49.8445H101.6V54H-1V49.8445Z" fill="#BD3D44"/>
<path fill-rule="evenodd" clip-rule="evenodd" d="M-1 4.15546H101.6V8.31093H-1V4.15546ZM-1 12.4664H101.6V16.6113H-1V12.4664ZM-1 20.7668H101.6V24.9223H-1V20.7668ZM-1 29.0777H101.6V33.2332H-1V29.0777ZM-1 37.3887H101.6V41.5441H-1V37.3887ZM-1 45.689H101.6V49.8445H-1V45.689Z" fill="white"/>
<path fill-rule="evenodd" clip-rule="evenodd" d="M-1 0H40.0379V29.0777H-1V0Z" fill="#192F5D"/>
<path fill-rule="evenodd" clip-rule="evenodd" d="M2.41711 1.24454L2.7968 2.39415H3.99915L3.02883 3.10079L3.39797 4.26094L2.41711 3.54375L1.4468 4.2504L1.81594 3.10079L0.835083 2.39415H2.05852L2.41711 1.24454ZM9.26204 1.24454L9.63118 2.39415H10.8441L9.86321 3.10079L10.2323 4.26094L9.26204 3.54375L8.28118 4.2504L8.65032 3.10079L7.68001 2.39415H8.88235L9.26204 1.24454ZM16.0964 1.24454L16.4761 2.39415H17.6679L16.6976 3.10079L17.0667 4.26094L16.0859 3.54375L15.1156 4.2504L15.4847 3.10079L14.5038 2.39415H15.7167L16.0964 1.24454ZM22.9413 1.24454L23.3105 2.39415H24.5234L23.5425 3.10079L23.9222 4.26094L22.9413 3.54375L21.9605 4.2504L22.3402 3.10079L21.3593 2.39415H22.5616L22.9413 1.24454ZM29.7757 1.24454L30.1554 2.39415H31.3577L30.3874 3.10079L30.7566 4.26094L29.7757 3.54375L28.8054 4.2504L29.1745 3.10079L28.2042 2.39415H29.4066L29.7757 1.24454ZM36.6206 1.24454L36.9898 2.39415H38.2027L37.2218 3.10079L37.6015 4.26094L36.6206 3.54375L35.6398 4.2504L36.0195 3.10079L35.0386 2.39415H36.2515L36.6206 1.24454ZM5.84485 4.15547L6.21399 5.30508H7.42688L6.44602 6.01172L6.80461 7.16133L5.8554 6.45469L4.87454 7.16133L5.22258 6.01172L4.27336 5.30508H5.47571L5.84485 4.15547ZM12.6792 4.15547L13.0589 5.30508H14.2613L13.2804 6.01172L13.6601 7.16133L12.6792 6.45469L11.6984 7.16133L12.0781 6.01172L11.0972 5.30508H12.3101L12.6792 4.15547ZM19.5241 4.15547L19.8933 5.30508H21.1062L20.1253 6.01172L20.4945 7.16133L19.5241 6.45469L18.5433 7.16133L18.9124 6.01172L17.9421 5.30508H19.1445L19.5241 4.15547ZM26.3585 4.15547L26.7382 5.30508H27.9406L26.9597 6.01172L27.3394 7.16133L26.3585 6.45469L25.3882 7.16133L25.7573 6.01172L24.7765 5.30508H25.9999L26.3585 4.15547ZM33.2034 4.15547L33.5726 5.30508H34.7855L33.8046 6.01172L34.1738 7.16133L33.2034 6.45469L32.2226 7.16133L32.5917 6.01172L31.6214 5.30508H32.8238L33.2034 4.15547ZM2.41711 7.05586L2.7968 8.22656H3.99915L3.02883 8.9332L3.39797 10.0828L2.41711 9.36563L1.4468 10.0828L1.81594 8.92266L0.835083 8.21602H2.05852L2.41711 7.05586ZM9.26204 7.05586L9.63118 8.21602H10.8441L9.86321 8.92266L10.2323 10.0723L9.26204 9.35508L8.28118 10.0723L8.65032 8.91211L7.68001 8.20547H8.88235L9.26204 7.05586ZM16.0964 7.05586L16.4761 8.21602H17.6679L16.6976 8.92266L17.0667 10.0723L16.0859 9.35508L15.1156 10.0723L15.4847 8.91211L14.5038 8.20547H15.7167L16.0964 7.05586ZM22.9413 7.05586L23.3105 8.21602H24.5234L23.5425 8.92266L23.9222 10.0723L22.9413 9.35508L21.9605 10.0723L22.3402 8.91211L21.3593 8.20547H22.5616L22.9413 7.05586ZM29.7757 7.05586L30.1554 8.21602H31.3577L30.3874 8.92266L30.7566 10.0723L29.7757 9.35508L28.8054 10.0723L29.1745 8.91211L28.2042 8.20547H29.4066L29.7757 7.05586ZM36.6206 7.05586L36.9898 8.21602H38.2027L37.2218 8.92266L37.6015 10.0723L36.6206 9.35508L35.6398 10.0723L36.0195 8.91211L35.0386 8.20547H36.2515L36.6206 7.05586ZM5.84485 9.9668L6.21399 11.1164H7.42688L6.44602 11.823L6.81516 12.9832L5.84485 12.266L4.86399 12.9727L5.23313 11.823L4.26282 11.1164H5.46516L5.84485 9.9668ZM12.6792 9.9668L13.0589 11.1164H14.2613L13.2804 11.823L13.6601 12.9832L12.6792 12.266L11.6984 12.9727L12.0781 11.823L11.0972 11.1164H12.3101L12.6792 9.9668ZM19.5241 9.9668L19.8933 11.1164H21.1062L20.1253 11.823L20.4945 12.9832L19.5241 12.266L18.5433 12.9727L18.9124 11.823L17.9421 11.1164H19.1445L19.5241 9.9668ZM26.3585 9.9668L26.7382 11.1164H27.9406L26.9702 11.823L27.3394 12.9832L26.3585 12.266L25.3882 12.9727L25.7573 11.823L24.7765 11.1164H25.9999L26.3585 9.9668ZM33.2034 9.9668L33.5726 11.1164H34.7855L33.8046 11.823L34.1738 12.9832L33.2034 12.266L32.2226 12.9727L32.5917 11.823L31.6214 11.1164H32.8238L33.2034 9.9668ZM2.41711 12.8777L2.7968 14.0273H3.99915L3.02883 14.734L3.39797 15.8941L2.41711 15.177L1.4468 15.8836L1.81594 14.734L0.835083 14.0273H2.05852L2.41711 12.8777ZM9.26204 12.8777L9.63118 14.0273H10.8441L9.86321 14.734L10.2323 15.8836L9.26204 15.177L8.28118 15.8836L8.65032 14.734L7.68001 14.0273H8.88235L9.26204 12.8777ZM16.0964 12.8777L16.4761 14.0273H17.6679L16.6976 14.734L17.0667 15.8941L16.0859 15.177L15.1156 15.8836L15.4847 14.734L14.5038 14.0273H15.7167L16.0964 12.8777ZM22.9413 12.8777L23.3105 14.0273H24.5234L23.5425 14.734L23.9222 15.8941L22.9413 15.177L21.9605 15.8836L22.3402 14.734L21.3593 14.0273H22.5616L22.9413 12.8777ZM29.7757 12.8777L30.1554 14.0273H31.3577L30.3874 14.734L30.7566 15.8941L29.7757 15.177L28.8054 15.8836L29.1745 14.734L28.2042 14.0273H29.4066L29.7757 12.8777ZM36.6206 12.8777L36.9898 14.0273H38.2027L37.2218 14.734L37.6015 15.8941L36.6206 15.177L35.6398 15.8836L36.0195 14.734L35.0386 14.0273H36.2515L36.6206 12.8777ZM5.84485 15.7887L6.21399 16.9383H7.42688L6.44602 17.6449L6.81516 18.7945L5.84485 18.0773L4.86399 18.7945L5.23313 17.6344L4.26282 16.9277H5.46516L5.84485 15.7887ZM12.6792 15.7887L13.0589 16.9383H14.2613L13.2804 17.6449L13.6601 18.7945L12.6792 18.0773L11.6984 18.7945L12.0781 17.6344L11.0972 16.9277H12.3101L12.6792 15.7887ZM19.5241 15.7887L19.8933 16.9383H21.1062L20.1253 17.6449L20.4945 18.7945L19.5241 18.0773L18.5433 18.7945L18.9124 17.6344L17.9421 16.9277H19.1445L19.5241 15.7887ZM26.3585 15.7887L26.7382 16.9383H27.9406L26.9702 17.6449L27.3394 18.7945L26.3585 18.0773L25.3882 18.7945L25.7573 17.6344L24.7765 16.9277H25.9999L26.3585 15.7887ZM33.2034 15.7887L33.5726 16.9383H34.7855L33.8046 17.6449L34.1738 18.7945L33.2034 18.0773L32.2226 18.7945L32.5917 17.6344L31.6214 16.9277H32.8238L33.2034 15.7887ZM2.41711 18.6891L2.7968 19.8492H3.99915L3.02883 20.5559L3.39797 21.6949L2.41711 20.9883L1.4468 21.6949L1.81594 20.5453L0.835083 19.8387H2.05852L2.41711 18.6891ZM9.26204 18.6891L9.63118 19.8492H10.8441L9.86321 20.5559L10.2429 21.6949L9.26204 20.9883L8.28118 21.6949L8.66086 20.5453L7.68001 19.8387H8.88235L9.26204 18.6891ZM16.0964 18.6891L16.4761 19.8492H17.6679L16.6976 20.5559L17.0667 21.6949L16.0859 20.9883L15.1156 21.6949L15.4847 20.5453L14.5038 19.8387H15.7167L16.0964 18.6891ZM22.9413 18.6891L23.3105 19.8492H24.5234L23.5425 20.5559L23.9222 21.6949L22.9413 20.9883L21.9605 21.6949L22.3402 20.5453L21.3593 19.8387H22.5616L22.9413 18.6891ZM29.7757 18.6891L30.1554 19.8492H31.3577L30.3874 20.5559L30.7566 21.6949L29.7757 20.9883L28.8054 21.6949L29.1745 20.5453L28.2042 19.8387H29.4066L29.7757 18.6891ZM36.6206 18.6891L36.9898 19.8492H38.2027L37.2218 20.5559L37.6015 21.6949L36.6206 20.9883L35.6398 21.6949L36.0195 20.5453L35.0386 19.8387H36.2515L36.6206 18.6891ZM5.84485 21.6L6.21399 22.7496H7.42688L6.44602 23.4562L6.81516 24.6164L5.84485 23.8992L4.86399 24.6059L5.23313 23.4562L4.26282 22.7496H5.46516L5.84485 21.6ZM12.6792 21.6L13.0589 22.7496H14.2613L13.2804 23.4562L13.6601 24.6164L12.6792 23.8992L11.6984 24.6059L12.0781 23.4562L11.0972 22.7496H12.3101L12.6792 21.6ZM19.5241 21.6L19.8933 22.7496H21.1062L20.1253 23.4562L20.4945 24.6164L19.5241 23.8992L18.5433 24.6059L18.9124 23.4562L17.9421 22.7496H19.1445L19.5241 21.6ZM26.3585 21.6L26.7382 22.7496H27.9406L26.9702 23.4562L27.3394 24.6164L26.3585 23.8992L25.3882 24.6059L25.7573 23.4562L24.7765 22.7496H25.9999L26.3585 21.6ZM33.2034 21.6L33.5726 22.7496H34.7855L33.8046 23.4562L34.1738 24.6164L33.2034 23.8992L32.2226 24.6059L32.5917 23.4562L31.6214 22.7496H32.8238L33.2034 21.6ZM2.41711 24.5109L2.7968 25.6605H3.99915L3.02883 26.3672L3.39797 27.5168L2.41711 26.8101L1.4468 27.5168L1.81594 26.3566L0.835083 25.65H2.05852L2.41711 24.5109ZM9.26204 24.5109L9.63118 25.6605H10.8441L9.86321 26.3672L10.2429 27.5168L9.26204 26.8101L8.28118 27.5168L8.66086 26.3566L7.68001 25.65H8.88235L9.26204 24.5109ZM16.0964 24.5109L16.4761 25.6605H17.6679L16.7187 26.3672L17.0878 27.5168L16.107 26.8101L15.1366 27.5168L15.5058 26.3566L14.5249 25.65H15.7378L16.0964 24.5109ZM22.9413 24.5109L23.3105 25.6605H24.5234L23.5425 26.3672L23.9222 27.5168L22.9413 26.8101L21.9605 27.5168L22.3402 26.3566L21.3593 25.65H22.5616L22.9413 24.5109ZM29.7757 24.5109L30.1554 25.6605H31.3577L30.3874 26.3672L30.7566 27.5168L29.7757 26.8101L28.8054 27.5168L29.1745 26.3566L28.2042 25.65H29.4066L29.7757 24.5109ZM36.6206 24.5109L36.9898 25.6605H38.2027L37.2218 26.3672L37.6015 27.5168L36.6206 26.8101L35.6398 27.5168L36.0195 26.3566L35.0386 25.65H36.2515L36.6206 24.5109Z" fill="white"/>
</g>
</svg>
