<svg width="64" height="64" viewBox="0 0 64 64" fill="none" xmlns="http://www.w3.org/2000/svg">
<g clip-path="url(#clip0)">
<path d="M61.3833 24.0002C61.5117 24.4601 61.8762 24.8162 62.339 24.9338C62.8017 25.0514 63.292 24.9125 63.6243 24.5697C63.9567 24.2269 64.0803 23.7325 63.9484 23.2737C59.5458 9.35563 46.5972 -0.0768318 31.9997 0.000471629C14.3267 0.000471629 0 14.3272 0 32.0001C0 49.673 14.3267 63.9998 31.9997 63.9998C32.736 63.9998 33.333 63.4028 33.333 62.6665C33.333 61.9301 32.736 61.3331 31.9997 61.3331C15.7995 61.3331 2.66664 48.2003 2.66664 32.0001C2.66664 15.7999 15.7995 2.66711 31.9997 2.66711C45.4092 2.57575 57.3177 11.2215 61.3833 24.0002Z" fill="#3BB3BD"/>
<path d="M30.6679 18.6671V30.6669H24.0013C23.2649 30.6669 22.668 31.2639 22.668 32.0002C22.668 32.7366 23.2649 33.3336 24.0013 33.3336H32.0012C32.3549 33.3338 32.6941 33.1934 32.9442 32.9433C33.1943 32.6932 33.3347 32.3539 33.3345 32.0002V18.6671C33.3345 17.9307 32.7376 17.3337 32.0012 17.3337C31.2648 17.3337 30.6679 17.9307 30.6679 18.6671Z" fill="#3BB3BD"/>
<path d="M57.3331 45.3336H53.3332V37.3337H59.9998C60.7362 37.3337 61.3331 36.7367 61.3331 36.0003C61.3331 35.264 60.7362 34.667 59.9998 34.667H53.3332V30.6671C53.3332 29.9307 52.7362 29.3337 51.9999 29.3337C51.2635 29.3337 50.6666 29.9307 50.6666 30.6671V34.667H46.6666C42.9847 34.667 40 37.6518 40 41.3336C40 45.0155 42.9847 48.0002 46.6666 48.0002H50.6666V56.0001H44C43.2636 56.0001 42.6666 56.5971 42.6666 57.3334C42.6666 58.0698 43.2636 58.6668 44 58.6668H50.6666V62.6667C50.6666 63.4031 51.2635 64 51.9999 64C52.7362 64 53.3332 63.4031 53.3332 62.6667V58.6668H57.3331C61.015 58.6668 63.9997 55.682 63.9997 52.0002C63.9997 48.3183 61.015 45.3336 57.3331 45.3336ZM46.6666 45.3336C44.4575 45.3336 42.6666 43.5427 42.6666 41.3336C42.6666 39.1245 44.4575 37.3337 46.6666 37.3337H50.6666V45.3336H46.6666ZM57.3331 56.0001H53.3332V48.0002H57.3331C59.5423 48.0002 61.3331 49.791 61.3331 52.0002C61.3331 54.2093 59.5423 56.0001 57.3331 56.0001Z" fill="#3BB50B"/>
</g>
<defs>
<clipPath id="clip0">
<rect width="64" height="64" fill="white"/>
</clipPath>
</defs>
</svg>
