<svg width="59" height="64" viewBox="0 0 59 64" fill="none" xmlns="http://www.w3.org/2000/svg">
<path d="M43.9946 22.664C43.9946 14.5646 37.4287 7.99878 29.3293 7.99878C21.2299 7.99878 14.6641 14.5646 14.6641 22.664C14.6641 30.7634 21.2299 37.3293 29.3293 37.3293C37.4249 37.3202 43.9854 30.7596 43.9946 22.664ZM17.3305 22.664C17.3305 16.0373 22.7025 10.6652 29.3293 10.6652C35.9561 10.6652 41.3282 16.0373 41.3282 22.664C41.3282 29.2908 35.9561 34.6629 29.3293 34.6629C22.7055 34.6557 17.3377 29.2878 17.3305 22.664Z" fill="#3BB50B"/>
<path d="M35.9967 22.6645C35.9966 22.2188 35.7738 21.8025 35.403 21.5553L27.4038 16.2224C26.9947 15.9497 26.4687 15.9243 26.0352 16.1563C25.6017 16.3883 25.3311 16.84 25.3311 17.3317V27.9973C25.3311 28.489 25.6017 28.9407 26.0352 29.1727C26.4687 29.4047 26.9947 29.3792 27.4038 29.1065L35.403 23.7737C35.7738 23.5264 35.9966 23.1102 35.9967 22.6645ZM27.9975 25.5067V19.8223L32.2601 22.6645L27.9975 25.5067Z" fill="#3BB50B"/>
<path d="M58.661 42.6626V3.99962C58.6586 1.79169 56.8694 0.00241005 54.6614 0H3.99962C1.79169 0.00241005 0.00241005 1.79169 0 3.99962V42.6626C0.00241005 44.8705 1.79169 46.6598 3.99962 46.6622H26.2855L12.353 61.7558C12.0262 62.105 11.9115 62.6025 12.0524 63.0596C12.1933 63.5166 12.5683 63.8632 13.035 63.9677C13.5017 64.0722 13.9887 63.9188 14.3111 63.5655L27.9973 48.7388V62.6607C27.9973 63.397 28.5942 63.9939 29.3305 63.9939C30.0668 63.9939 30.6637 63.397 30.6637 62.6607V48.7388L44.3499 63.5655C44.6723 63.9188 45.1593 64.0723 45.626 63.9677C46.0927 63.8632 46.4677 63.5167 46.6086 63.0596C46.7496 62.6026 46.6349 62.105 46.3081 61.7558L32.3756 46.6622H54.6614C56.8694 46.6598 58.6586 44.8705 58.661 42.6626ZM2.66641 42.6626V3.99962C2.66691 3.26351 3.26351 2.66691 3.99962 2.66641H54.6614C55.3975 2.66691 55.9941 3.26351 55.9946 3.99962V42.6626C55.9941 43.3987 55.3975 43.9953 54.6614 43.9958H3.99962C3.26351 43.9953 2.66691 43.3987 2.66641 42.6626Z" fill="#3BB3BD"/>
</svg>
