<svg width="84" height="64" viewBox="0 0 84 64" fill="none" xmlns="http://www.w3.org/2000/svg">
<path d="M68.7033 16.6188C69.2415 16.6188 69.6002 16.9462 69.6002 17.4372V52.188C69.6002 52.6791 69.2415 53.0064 68.7033 53.0064H11.3042C10.7661 53.0064 10.4074 52.6791 10.4074 52.188V17.4372C10.4074 16.9462 10.7661 16.6188 11.3042 16.6188H68.7033ZM68.7033 14H11.3042C9.33115 14 7.7168 15.4731 7.7168 17.2735V52.0244C7.7168 53.8248 9.33115 55.2979 11.3042 55.2979H68.7033C70.6764 55.2979 72.2908 53.8248 72.2908 52.0244V17.2735C72.2908 15.4731 70.6764 14 68.7033 14Z" fill="#3BB3BD"/>
<path d="M78.565 64.3366H1.43498C0.717487 64.3366 0 63.8456 0 63.0272C0 62.2088 0.538115 61.7178 1.43498 61.7178H78.565C79.2825 61.7178 80 62.2088 80 63.0272C80 63.8456 79.2825 64.3366 78.565 64.3366Z" fill="#3BB3BD"/>
<ellipse cx="70" cy="13" rx="20" ry="28" fill="white"/>
<path d="M58.7501 12.993L58.75 12.993V12.9994C58.75 18.0334 60.9587 22.4183 63.5092 25.848C65.9484 29.1281 68.7149 31.5536 70.1987 32.8546C70.2667 32.9142 70.332 32.9714 70.3944 33.0263L70.3944 33.0263L70.3977 33.0291C70.5657 33.1717 70.779 33.25 70.9994 33.25C71.2198 33.25 71.4331 33.1717 71.6012 33.0291L71.6012 33.0291L71.6044 33.0263C71.6668 32.9714 71.7321 32.9142 71.8001 32.8546C73.284 31.5536 76.0505 29.1281 78.4897 25.848C81.0401 22.4183 83.2488 18.0334 83.2488 12.9994H83.2489L83.2488 12.993C83.1661 9.77203 81.8497 6.70577 79.5714 4.42744C77.2931 2.14911 74.2268 0.832712 71.0058 0.750082L70.7494 0.743504V0.758693C67.6177 0.899777 64.6483 2.20662 62.4274 4.42744C60.1491 6.70577 58.8327 9.77203 58.7501 12.993ZM70.9994 31.1201C66.3237 27.0279 60.5855 20.8809 60.5833 13.004C60.6845 10.2726 61.8149 7.6805 63.7477 5.74771C65.6794 3.81601 68.2697 2.68582 70.9994 2.58344C73.7291 2.68582 76.3194 3.81601 78.2511 5.74771C80.1839 7.6805 81.3143 10.2726 81.4156 13.004C81.4133 20.8809 75.6752 27.0279 70.9994 31.1201Z" fill="#3BB50B" stroke="#3BB50B" stroke-width="0.5"/>
<path d="M71 6.75C69.7639 6.75 68.5555 7.11656 67.5277 7.80331C66.4999 8.49007 65.6988 9.46619 65.2258 10.6082C64.7527 11.7503 64.6289 13.0069 64.8701 14.2193C65.1113 15.4317 65.7065 16.5453 66.5806 17.4194C67.4547 18.2935 68.5683 18.8887 69.7807 19.1299C70.9931 19.3711 72.2497 19.2473 73.3918 18.7742C74.5338 18.3012 75.5099 17.5001 76.1967 16.4723C76.8834 15.4445 77.25 14.2361 77.25 13C77.25 11.3424 76.5915 9.75268 75.4194 8.58058C74.2473 7.40848 72.6576 6.75 71 6.75ZM71 17.55C70.1001 17.55 69.2204 17.2831 68.4722 16.7832C67.7239 16.2832 67.1407 15.5726 66.7964 14.7412C66.452 13.9098 66.3619 12.995 66.5374 12.1123C66.713 11.2297 67.1463 10.419 67.7827 9.78266C68.419 9.14633 69.2297 8.71299 70.1123 8.53743C70.995 8.36186 71.9098 8.45197 72.7412 8.79635C73.5726 9.14073 74.2832 9.72391 74.7832 10.4722C75.2831 11.2204 75.55 12.1001 75.55 13C75.55 14.2067 75.0706 15.364 74.2173 16.2173C73.364 17.0706 72.2067 17.55 71 17.55Z" fill="#3BB50B" stroke="#3BB50B" stroke-width="0.5"/>
</svg>
