<svg fill="none" height="29" viewBox="0 0 103 29" width="103" xmlns="http://www.w3.org/2000/svg"><g clip-rule="evenodd" fill-rule="evenodd"><path d="m90.1596 22.6816h-3.1919v-16.81011h3.1919zm-47.483-5.6143v5.6143h-3.302v-15.93459h6.2518c1.2034 0 2.2619.21888 3.1755.65665.9135.43776 1.6161 1.05974 2.1078 1.86596.4916.80618.7374 1.72368.7374 2.75248 0 1.5613-.5375 2.7925-1.6125 3.6936-1.075.901-2.5627 1.3516-4.4632 1.3516zm0-2.6594h2.9498c.8732 0 1.5391-.2043 1.9977-.6129.4587-.4086.688-.9923.688-1.7511 0-.7806-.2312-1.4117-.6935-1.8933-.4622-.48152-1.1006-.72959-1.9151-.74418h-3.0269zm16.5762-.6895c.3302 0 .7117.0292 1.1447.0875l.044-3.0424c-.3082-.0949-.6384-.1423-.9906-.1423-1.13 0-2.0142.5436-2.6526 1.6307l-.0881-1.4118h-3.0048v11.8415h3.1809v-7.7484c.3742-.8099 1.1631-1.2148 2.3665-1.2148zm8.1559 9.182c-1.7464 0-3.1681-.5326-4.2651-1.5978s-1.6455-2.4843-1.6455-4.2572v-.3065c0-1.1892.2311-2.2526.6934-3.1902.4623-.9375 1.1172-1.6598 1.9647-2.1669s1.8143-.7606 2.9003-.7606c1.629 0 2.9113.5107 3.8468 1.5322.9356 1.0214 1.4034 2.4697 1.4034 4.3448v1.2914h-7.5836c.1027.7734.4127 1.3935.93 1.8605.5174.4669 1.1722.7004 1.9647.7004 1.2255 0 2.183-.4414 2.8728-1.3243l1.5629 1.7402c-.4769.6712-1.1226 1.1947-1.9371 1.5704-.8145.3758-1.7171.5636-2.7077.5636zm-1.8986-9.0835c.3925-.4232.9043-.6348 1.5354-.6348.6751 0 1.1961.1915 1.5629.5746.3669.383.5577.9248.5724 1.6252v.2517h-4.4247c.1101-.788.3614-1.3936.754-1.8167zm19.3222 3.0534c0 1.824-.4164 3.285-1.2492 4.3831-.8329 1.098-1.9574 1.647-3.3736 1.647-1.2034 0-2.1756-.4158-2.9167-1.2476v5.5815h-3.181v-16.3942h2.9498l.1101 1.1601c.7705-.9193 1.7757-1.379 3.0158-1.379 1.4676 0 2.6086.5399 3.4231 1.6197.8145 1.0799 1.2217 2.5682 1.2217 4.4652zm-3.7698-2.7798c.3926.5983.5889 1.4482.5889 2.5499 0 2.4734-.7595 3.7101-2.2784 3.7101-.998 0-1.6914-.3904-2.0803-1.171v-4.8483c.3743-.7587 1.0603-1.1381 2.0583-1.1381.7484 0 1.3189.2991 1.7115.8974zm18.3647-3.2504-2.2013 7.3653-2.2124-7.3653h-3.423l4.1715 11.8743-.3742.974c-.1688.4232-.4018.726-.699.9084-.2971.1824-.7466.2736-1.3483.2736l-.4843-.011v2.3968c.477.1386.9466.2079 1.4089.2079 1.6363 0 2.8104-.7734 3.5221-2.3201l.2642-.6238 4.7876-13.6801z" fill="#000"/><path d="m8.37417 3.67347c2.69523.75613 4.95583 1.39035 4.95583 2.63423v13.4309c-1.168-.6185-2.7015-1.0486-4.3595-1.5137l-.00109-.0003-.0026-.0007c-2.49408-.6997-5.32129-1.4927-7.21839-3.1074-.5922-.5042-1.034337-1.0572-1.324216-1.655-.282193-.5821-.424204-1.2225-.424204-1.9186v-11.5245887l.00512412-.0018214c.04684908-.01639287.09479628-.02040002.13871688-.01275002.032209.00546429.059294.01712142.077594.03315002 2.276575 1.9886401 5.400825 2.8651101 8.151745 3.6363001zm.46238 19.01183c1.22245-.3428 2.37285-.666 3.34425-1.0583.5914.3082.9908.6543 1.1108 1.0732-.3063 1.0688-2.427 1.6637-4.91842 2.3624l-.00096.0003c-2.75068.7715-5.87447 1.6476-8.150785 3.6364-.0183.016-.045385.0273-.077594.0327-.0439206.0081-.0918678.004-.13871688-.0127l-.00512412-.0018v-11.5246c0-.2222.0142743-.4393.043555-.6506.087842.082.178612.1621.271579.2412 1.362286 1.1595 3.015176 1.9336 4.705406 2.5318-.79314.287-1.57493.6149-2.31647 1.0054-.29903.157-.41395.5256-.25657.8236.15775.2977.52815.4124.82755.2554 1.15622-.6087 2.4453-1.0634 3.72414-1.4524.42462.1244.84497.2425 1.25741.3584l.11695.0328.00652.0019c.73295.2055 1.43377.402 2.06543.6047-.58431.1844-1.21702.3624-1.87485.5474l-.06497.0183-.00483.0014c-1.89243.5307-3.9661 1.1123-5.79678 2.0765-.29903.1566-.41395.5257-.25657.8236.15775.298.52815.412.82755.2554 1.71694-.9038 3.72743-1.4681 5.5615-1.9824z" fill="#3bb3bd"/><path d="m16.69 7.10913c-.5915-.30818-.9908-.65425-1.1116-1.07355.3067-1.06828 2.4267-1.66314 4.9177-2.36206l.0011-.00033c2.7509-.77119 5.8752-1.64766 8.1518-3.6363001.0183-.0160286.0454-.02768573.0776-.03315002.0439-.00765.0918-.00364285.139.01275002l.0048.0018214v11.5245887c0 .2225-.0146.4396-.0435.6506-.0883-.0816-.1787-.1621-.2716-.2412-1.3623-1.1591-3.0148-1.9333-4.7054-2.53177.7935-.28706 1.5749-.61492 2.3164-1.00507.2994-.15701.414-.52566.2566-.82365-.1574-.29798-.5281-.41237-.8275-.25536-1.1563.60835-2.4453 1.06298-3.7242 1.45204-.4644-.13588-.9245-.26484-1.3743-.39088l-.0362-.01017c-.7222-.20285-1.4127-.39679-2.0358-.59636.6039-.19053 1.2591-.37449 1.9402-.56574l.0016-.00046c1.893-.53101 3.9679-1.11308 5.7996-2.07779.2994-.15664.414-.52566.2566-.82329-.1574-.29798-.5281-.41237-.8275-.25572-1.7156.90344-3.7243 1.46718-5.5572 1.98159l-.0043.00121-.0006.00015c-1.2219.34274-2.3724.66546-3.3433 1.0581zm3.8072 17.95347c-2.6957-.7559-4.9569-1.3905-4.9569-2.6345v-13.43051c1.1683.61819 2.7027 1.04881 4.3607 1.51401 2.4947.6994 5.3232 1.4932 7.2206 3.108.5926.5042 1.0347 1.0572 1.3249 1.6554.2819.5814.4239 1.2218.4239 1.9179v11.5246l-.0048.0018c-.0472.0167-.0951.0208-.1391.0127-.0322-.0054-.0593-.0167-.0776-.0327-2.2763-1.9888-5.4-2.8649-8.1507-3.6364z" fill="#f8463d"/></g></svg>