<svg fill="none" height="34" viewBox="0 0 34 34" width="34" xmlns="http://www.w3.org/2000/svg"><g clip-rule="evenodd" fill="#fff" fill-rule="evenodd"><path d="m15.6167 7.46309c0-1.47191-2.6491-2.2223-5.80719-3.11708-3.22281-.91245-6.88299-1.94947-9.55009-4.302363-.02144-.0189645-.05317-.0327569-.090904-.03922208-.051455-.00905125-.1076273-.00431012-.16251289.01508538l-.00600311.0021551v13.6355346c0 .8236.166372 1.5813.496972 2.2701.339604.7073.857588 1.3616 1.551378 1.9581 2.22329 1.9111 5.53701 2.8494 8.45965 3.6774 1.9429.5504 3.74 1.0594 5.1087 1.7913 0-11.0132 0-7.722 0-15.89101z"/><path d="m18.2507 7.14112c.1415.4961.6093.90556 1.3023 1.27019 1.1376-.46463 2.4857-.8465 3.9174-1.25208 2.1487-.60902 4.5041-1.27623 6.5156-2.346.3507-.18534.7851-.05.9695.30257.1843.35213.0501.78875-.3006.97408-2.1466 1.14176-4.5783 1.83051-6.7964 2.45893-.798.22628-1.5655.44394-2.273.66936.7422.24007 1.5659.47325 2.4274.71764.5269.14909 1.0659.30169 1.6101.46249 1.4982-.46034 3.0084-.99824 4.363-1.71803.3507-.18577.7851-.05043.9695.30214.1843.35256.0501.78875-.3006.97452-.8688.46157-1.7842.84947-2.7139 1.18917 1.9806.7081 3.9166 1.624 5.5126 2.9955.1089.0936.2148.1888.3182.2854.0339-.2496.051-.5065.051-.7698v-13.6355346l-.0056-.0021551c-.0553-.0193955-.1115-.02413663-.1629-.01508538-.0377.00646518-.0695.02025758-.0909.03922208-2.6671 2.352893-6.3273 3.389913-9.5501 4.302363-2.9188.82711-5.4032 1.53095-5.7626 2.79511z"/><path d="m18.2062 26.5362c0 1.472 2.6491 2.2228 5.8071 3.1171 3.2228.9129 6.883 1.9495 9.5501 4.3028.0215.019.0532.0323.0909.0388.0515.0095.1077.0048.163-.0151l.0055-.0021v-13.6355c0-.8237-.1663-1.5814-.4965-2.2693-.34-.7077-.858-1.362-1.5522-1.9585-2.2229-1.9107-5.5366-2.8499-8.4593-3.6774-1.9424-.5504-3.7399-1.0599-5.1086-1.7913z"/><path d="m14.2703 25.5884c-1.1381.4642-2.4858.8465-3.9179 1.2521-2.14872.6085-4.50408 1.2762-6.51555 2.3455-.35076.1854-.7847.0505-.96951-.3021-.18438-.3526-.04974-.7892.30059-.9745 2.14654-1.1418 4.57823-1.8301 6.79681-2.4585.79796-.2267 1.56556-.444 2.27256-.6694-.7422-.2405-1.5659-.4737-2.42736-.7176-.52698-.1496-1.06555-.3017-1.61012-.4629-1.4982.4603-3.00841.9982-4.36297 1.7184-.35076.1858-.7847.05-.96951-.3021-.18438-.3526-.04974-.7888.30059-.9745.86873-.4621 1.78464-.85 2.71383-1.1896-1.98017-.7078-3.9166-1.6237-5.512569-2.9956-.108913-.0935-.215254-.1883-.3181645-.2853-.0343035.25-.0510265.5069-.0510265.7698v13.6355l.00600311.0021c.05488559.0199.11105789.0246.16251289.0151.037734-.0064.069464-.0198.090904-.0388 2.6671-2.3533 6.32728-3.3899 9.55009-4.3028 2.91879-.8266 5.40319-1.5305 5.76209-2.7951-.1406-.4956-.6084-.9051-1.3013-1.2697z"/></g></svg>