<svg width="20" height="20" viewBox="0 0 20 20" fill="none" xmlns="http://www.w3.org/2000/svg">
<path d="M19.35 10C19.35 15.1639 15.1639 19.35 10 19.35C4.83614 19.35 0.65 15.1639 0.65 10C0.65 4.83614 4.83614 0.65 10 0.65C15.1639 0.65 19.35 4.83614 19.35 10Z" stroke="#6F757B" stroke-width="1.3"/>
<path fill-rule="evenodd" clip-rule="evenodd" d="M10.1667 5C11.2111 5 12.0778 5.28889 12.7444 5.82222C13.4333 6.37778 13.7889 7.11111 13.7889 7.97778C13.7889 8.46667 13.6778 8.93333 13.4333 9.35556C13.1889 9.75556 12.7889 10.2 12.1889 10.6667C11.5222 11.1778 11.3667 11.4222 11.3222 11.5111C11.3137 11.5281 11.3085 11.5418 11.304 11.5536C11.2968 11.5725 11.2915 11.5863 11.2778 11.6L11.2778 11.6C11.2556 11.6444 11.2333 11.6889 11.2333 11.7111C11.0778 12.1333 10.7 12.4 10.2556 12.4H10.1667C9.83333 12.4 9.52222 12.2222 9.32222 11.9556C9.14444 11.6667 9.1 11.3333 9.21111 11.0222C9.25556 10.8889 9.32222 10.7556 9.38889 10.6222C9.61111 10.2 10.0111 9.75556 10.5667 9.31111C11.1976 8.83251 11.3599 8.58817 11.4082 8.51555C11.4092 8.51399 11.4102 8.51251 11.4111 8.51111C11.5 8.35556 11.5444 8.2 11.5444 8.04444C11.5444 7.71111 11.4333 7.44444 11.1889 7.22222C10.9444 7 10.6111 6.88889 10.1889 6.88889C9.36667 6.88889 8.94444 7.28889 8.78889 8.2C8.76667 8.75556 8.3 9.2 7.72222 9.2H7.56667C7.27778 9.2 7.01111 9.08889 6.81111 8.88889C6.58889 8.66667 6.5 8.4 6.5 8.11111V8.08889C6.58889 7.15556 6.98889 6.37778 7.65556 5.82222C8.32222 5.28889 9.16667 5 10.1667 5ZM10.1333 13H10.2222C10.8444 13 11.3556 13.5111 11.3556 14.1333C11.3556 14.7556 10.8444 15.2667 10.2222 15.2667H10.1333C9.51111 15.2667 9 14.7556 9 14.1333C9 13.5111 9.51111 13 10.1333 13Z" fill="#6F757B"/>
<path d="M12.7444 5.82222L12.9014 5.62762L12.9006 5.62701L12.7444 5.82222ZM13.4333 9.35556L13.6467 9.48595L13.6497 9.48081L13.4333 9.35556ZM12.1889 10.6667L12.341 10.8651L12.3424 10.864L12.1889 10.6667ZM11.3222 11.5111L11.0986 11.3993L11.0986 11.3993L11.3222 11.5111ZM11.304 11.5536L11.5376 11.6428L11.5376 11.6428L11.304 11.5536ZM11.2778 11.6L11.101 11.4232L11.0723 11.4519L11.0542 11.4882L11.2778 11.6ZM11.2778 11.6L11.0542 11.4882L11.0542 11.4882L11.2778 11.6ZM11.2333 11.7111L11.4679 11.7975L11.4833 11.7557V11.7111H11.2333ZM9.32222 11.9556L9.10931 12.0866L9.11533 12.0964L9.12222 12.1056L9.32222 11.9556ZM9.21111 11.0222L9.4466 11.1063L9.44828 11.1013L9.21111 11.0222ZM9.38889 10.6222L9.16761 10.5058L9.16528 10.5104L9.38889 10.6222ZM10.5667 9.31111L10.4155 9.11187L10.4105 9.11589L10.5667 9.31111ZM11.4082 8.51555L11.6164 8.65391L11.6164 8.65391L11.4082 8.51555ZM11.4111 8.51111L11.6191 8.6498L11.6239 8.64263L11.6282 8.63515L11.4111 8.51111ZM8.78889 8.2L8.54245 8.15793L8.53973 8.17386L8.53909 8.19001L8.78889 8.2ZM6.81111 8.88889L6.63433 9.06567H6.63433L6.81111 8.88889ZM6.5 8.08889L6.25113 8.06519L6.25 8.07701V8.08889H6.5ZM7.65556 5.82222L7.49935 5.62697L7.49551 5.63017L7.65556 5.82222ZM12.9006 5.62701C12.1829 5.05282 11.2586 4.75 10.1667 4.75V5.25C11.1636 5.25 11.9727 5.52496 12.5883 6.01744L12.9006 5.62701ZM14.0389 7.97778C14.0389 7.0336 13.6476 6.22942 12.9014 5.62762L12.5875 6.01683C13.219 6.52613 13.5389 7.18862 13.5389 7.97778H14.0389ZM13.6497 9.48081C13.9186 9.01629 14.0389 8.50548 14.0389 7.97778H13.5389C13.5389 8.42785 13.4369 8.85038 13.217 9.2303L13.6497 9.48081ZM12.3424 10.864C12.9595 10.384 13.3826 9.91805 13.6467 9.48592L13.22 9.22519C12.9952 9.59306 12.6183 10.016 12.0354 10.4693L12.3424 10.864ZM11.5458 11.6229C11.5649 11.5847 11.6848 11.3682 12.341 10.8651L12.0368 10.4683C11.3597 10.9874 11.1684 11.2597 11.0986 11.3993L11.5458 11.6229ZM11.5376 11.6428C11.5417 11.6318 11.5433 11.628 11.5458 11.6229L11.0986 11.3993C11.0842 11.4282 11.0752 11.4518 11.0705 11.4643L11.5376 11.6428ZM11.4546 11.7768C11.5107 11.7206 11.5315 11.6585 11.5376 11.6428L11.0705 11.4643C11.0695 11.4669 11.0689 11.4684 11.0684 11.4697C11.0679 11.471 11.0677 11.4714 11.0678 11.4713C11.0678 11.4712 11.0692 11.4679 11.0718 11.4629C11.0746 11.4576 11.0785 11.4508 11.0839 11.4433C11.0893 11.4358 11.0951 11.4291 11.101 11.4232L11.4546 11.7768ZM11.5014 11.7118L11.5014 11.7118L11.0542 11.4882L11.0542 11.4882L11.5014 11.7118ZM11.4833 11.7111C11.4833 11.72 11.4828 11.7276 11.4821 11.7335C11.4815 11.7395 11.4807 11.7445 11.4799 11.7484C11.4785 11.7559 11.477 11.7611 11.4763 11.7634C11.4756 11.7659 11.4751 11.767 11.4753 11.7664C11.4755 11.766 11.476 11.7647 11.477 11.7624C11.4791 11.7576 11.4821 11.7509 11.4865 11.7419C11.4909 11.7328 11.4957 11.7232 11.5014 11.7118L11.0542 11.4882C11.044 11.5086 11.0292 11.5378 11.0174 11.5654C11.0114 11.5795 11.0041 11.5978 10.998 11.6178C10.9928 11.6348 10.9833 11.6692 10.9833 11.7111H11.4833ZM10.2556 12.65C10.8068 12.65 11.2769 12.3161 11.4679 11.7975L10.9987 11.6247C10.8787 11.9506 10.5932 12.15 10.2556 12.15V12.65ZM10.1667 12.65H10.2556V12.15H10.1667V12.65ZM9.12222 12.1056C9.36246 12.4259 9.7437 12.65 10.1667 12.65V12.15C9.92297 12.15 9.68199 12.0186 9.52222 11.8056L9.12222 12.1056ZM8.97568 10.9381C8.83688 11.3268 8.89532 11.7388 9.10931 12.0866L9.53514 11.8245C9.39357 11.5945 9.36312 11.3399 9.44655 11.1063L8.97568 10.9381ZM9.16528 10.5104C9.10031 10.6404 9.02502 10.7899 8.97394 10.9432L9.44828 11.1013C9.48609 10.9879 9.54414 10.8707 9.6125 10.734L9.16528 10.5104ZM10.4105 9.11589C9.8403 9.57205 9.41188 10.0418 9.16766 10.5058L9.61012 10.7387C9.81034 10.3582 10.1819 9.93906 10.7228 9.50633L10.4105 9.11589ZM11.1999 8.3772C11.1696 8.4228 11.028 8.64737 10.4156 9.11194L10.7178 9.51028C11.3671 9.01765 11.5502 8.75354 11.6164 8.65391L11.1999 8.3772ZM11.2031 8.37242C11.202 8.37402 11.2009 8.37567 11.1999 8.3772L11.6164 8.65391C11.6174 8.65232 11.6183 8.65101 11.6191 8.6498L11.2031 8.37242ZM11.2944 8.04444C11.2944 8.15026 11.2647 8.26349 11.1941 8.38708L11.6282 8.63515C11.7353 8.44762 11.7944 8.24974 11.7944 8.04444H11.2944ZM11.0207 7.40721C11.21 7.57924 11.2944 7.77726 11.2944 8.04444H11.7944C11.7944 7.64496 11.6567 7.30965 11.3571 7.03724L11.0207 7.40721ZM10.1889 7.13889C10.5668 7.13889 10.834 7.23746 11.0207 7.40721L11.3571 7.03724C11.0549 6.76254 10.6554 6.63889 10.1889 6.63889V7.13889ZM9.03532 8.24207C9.1086 7.8129 9.23825 7.54632 9.41002 7.38502C9.57699 7.22823 9.81829 7.13889 10.1889 7.13889V6.63889C9.73726 6.63889 9.35634 6.74955 9.06776 7.02053C8.78397 7.28701 8.62474 7.67599 8.54245 8.15793L9.03532 8.24207ZM7.72222 9.45C8.42961 9.45 9.01092 8.90415 9.03869 8.20999L8.53909 8.19001C8.52241 8.60696 8.17039 8.95 7.72222 8.95V9.45ZM7.56667 9.45H7.72222V8.95H7.56667V9.45ZM6.63433 9.06567C6.88147 9.3128 7.21183 9.45 7.56667 9.45V8.95C7.34372 8.95 7.14075 8.86497 6.98789 8.71211L6.63433 9.06567ZM6.25 8.11111C6.25 8.45626 6.35858 8.78991 6.63433 9.06567L6.98789 8.71211C6.8192 8.54343 6.75 8.34374 6.75 8.11111H6.25ZM6.25 8.08889V8.11111H6.75V8.08889H6.25ZM7.49551 5.63017C6.77461 6.23091 6.34581 7.07101 6.25113 8.06519L6.74887 8.11259C6.83197 7.2401 7.20317 6.52464 7.8156 6.01428L7.49551 5.63017ZM10.1667 4.75C9.11627 4.75 8.21511 5.05442 7.49938 5.62701L7.81173 6.01744C8.42933 5.52336 9.21706 5.25 10.1667 5.25V4.75ZM10.2222 12.75H10.1333V13.25H10.2222V12.75ZM11.6056 14.1333C11.6056 13.373 10.9825 12.75 10.2222 12.75V13.25C10.7064 13.25 11.1056 13.6492 11.1056 14.1333H11.6056ZM10.2222 15.5167C10.9825 15.5167 11.6056 14.8936 11.6056 14.1333H11.1056C11.1056 14.6175 10.7064 15.0167 10.2222 15.0167V15.5167ZM10.1333 15.5167H10.2222V15.0167H10.1333V15.5167ZM8.75 14.1333C8.75 14.8936 9.37304 15.5167 10.1333 15.5167V15.0167C9.64918 15.0167 9.25 14.6175 9.25 14.1333H8.75ZM10.1333 12.75C9.37304 12.75 8.75 13.373 8.75 14.1333H9.25C9.25 13.6492 9.64918 13.25 10.1333 13.25V12.75Z" fill="white"/>
</svg>
