<?xml version="1.0" encoding="utf-8"?><svg xmlns="http://www.w3.org/2000/svg" xmlns:xlink="http://www.w3.org/1999/xlink"><symbol fill="none" viewBox="0 0 54 54" id="chinese" xmlns="http://www.w3.org/2000/svg"><rect width="54" height="54" rx="4" fill="#C4C4C4"/><mask id="aa" maskUnits="userSpaceOnUse" x="0" y="0" width="54" height="54"><rect width="54" height="54" rx="4" fill="#C4C4C4"/></mask><g mask="url(#aa)"><path d="M0 0h72v54H0V0z" fill="#DE2910"/><path d="M8.64 19.98L13.5 5.4l4.86 14.58L5.4 11.07h16.2L8.64 19.98zm21.08-14.3l-5.002 1.108L28.054 2.9l-.327 5.232L24.95 3.5l4.768 2.18zm5.047 6.397l-5.04-.919L34.31 8.87l-2.33 4.696-.763-5.346 3.55 3.858zm-.736 8.974l-4.227-2.893 5.118-.222-4.043 3.337 1.485-5.192 1.667 4.97zm-6.357 5.864l-2.782-4.302 4.807 1.772-5.019 1.516 3.375-4.215-.381 5.229z" fill="#FFDE00"/></g></symbol><symbol fill="none" viewBox="0 0 54 54" id="french" xmlns="http://www.w3.org/2000/svg"><rect width="54" height="54" rx="4" fill="#C4C4C4"/><mask id="ba" maskUnits="userSpaceOnUse" x="0" y="0" width="54" height="54"><rect width="54" height="54" rx="4" fill="#C4C4C4"/></mask><g mask="url(#ba)" fill-rule="evenodd" clip-rule="evenodd"><path d="M-9 0h72.083v54.063H-9V0z" fill="#fff"/><path d="M-9 0h24.024v54.063H-9V0z" fill="#00267F"/><path d="M39.06 0h24.023v54.063H39.06V0z" fill="#F31830"/></g></symbol><symbol viewBox="0 0 32.42 32.42" class="chovered-paths" id="half-star" xmlns="http://www.w3.org/2000/svg"><path data-original="#000000" class="chovered-path cactive-path" d="M7.438 12.383l12.125-1.231L24.482 0l.5 1.135V26.58l-.5-.291-10.535 6.131 2.576-11.912z"/></symbol><symbol fill="none" viewBox="0 0 54 54" id="russian" xmlns="http://www.w3.org/2000/svg"><rect width="54" height="54" rx="4" fill="#C4C4C4"/><mask id="da" maskUnits="userSpaceOnUse" x="0" y="0" width="54" height="54"><rect width="54" height="54" rx="4" fill="#C4C4C4"/></mask><g mask="url(#da)" fill-rule="evenodd" clip-rule="evenodd"><path d="M-8.5 0h72v54h-72V0z" fill="#fff"/><path d="M-8.5 18h72v36h-72V18z" fill="#0039A6"/><path d="M-8.5 36h72v18h-72V36z" fill="#D52B1E"/></g></symbol><symbol fill="none" viewBox="0 0 54 54" id="spanish" xmlns="http://www.w3.org/2000/svg"><rect width="54" height="54" rx="4" fill="#C4C4C4"/><mask id="ea" maskUnits="userSpaceOnUse" x="0" y="0" width="54" height="54"><rect width="54" height="54" rx="4" fill="#C4C4C4"/></mask><g mask="url(#ea)"><path d="M-9.25 0h72v54h-72V0z" fill="#C60B1E"/><path d="M-9.25 13.5h72v27h-72v-27z" fill="#FFC400"/></g></symbol><symbol viewBox="0 0 510 510" id="star" xmlns="http://www.w3.org/2000/svg"><path d="M255 402.212l157.59 95.038-41.693-179.239L510 197.472l-183.37-15.734L255 12.75l-71.629 168.988L0 197.472l139.103 120.539L97.41 497.25z"/></symbol><symbol fill="none" viewBox="0 0 54 54" id="usa" xmlns="http://www.w3.org/2000/svg"><rect width="54" height="54" rx="4" fill="#C4C4C4"/><mask id="ga" maskUnits="userSpaceOnUse" x="0" y="0" width="54" height="54"><rect width="54" height="54" rx="4" fill="#C4C4C4"/></mask><g mask="url(#ga)" fill-rule="evenodd" clip-rule="evenodd"><path d="M-1 0h102.6v4.155H-1V0zm0 8.31h102.6v4.156H-1V8.311zm0 8.301h102.6v4.166H-1v-4.166zm0 8.311h102.6v4.156H-1v-4.156zm0 8.311h102.6v4.156H-1v-4.156zm0 8.3h102.6v4.156H-1v-4.155zm0 8.311h102.6V54H-1v-4.156z" fill="#BD3D44"/><path d="M-1 4.155h102.6v4.156H-1V4.155zm0 8.311h102.6v4.145H-1v-4.145zm0 8.3h102.6v4.156H-1v-4.155zm0 8.312h102.6v4.155H-1v-4.155zm0 8.31h102.6v4.156H-1V37.39zm0 8.301h102.6v4.155H-1V45.69z" fill="#fff"/><path d="M-1 0h41.038v29.078H-1V0z" fill="#192F5D"/><path d="M2.417 1.245l.38 1.15h1.202l-.97.706.369 1.16-.98-.717-.971.706.369-1.15-.98-.706h1.223l.358-1.15zm6.845 0l.37 1.15h1.212l-.98.706.368 1.16-.97-.717-.98.706.368-1.15-.97-.706h1.202l.38-1.15zm6.834 0l.38 1.15h1.192l-.97.706.369 1.16-.981-.717-.97.706.369-1.15-.981-.706h1.213l.38-1.15zm6.845 0l.37 1.15h1.212l-.98.706.38 1.16-.982-.717-.98.706.38-1.15-.982-.706h1.203l.38-1.15zm6.835 0l.38 1.15h1.202l-.97.706.369 1.16-.981-.717-.97.706.368-1.15-.97-.706h1.203l.369-1.15zm6.845 0l.369 1.15h1.213l-.981.706.38 1.16-.981-.717-.981.706.38-1.15-.981-.706h1.212l.37-1.15zM5.845 4.155l.369 1.15h1.213l-.981.707.359 1.15-.95-.707-.98.706.348-1.15-.95-.706h1.203l.369-1.15zm6.834 0l.38 1.15h1.202l-.98.707.38 1.15-.982-.707-.98.706.38-1.15-.982-.706h1.213l.37-1.15zm6.845 0l.37 1.15h1.212l-.98.707.368 1.15-.97-.707-.98.706.368-1.15-.97-.706h1.203l.38-1.15zm6.834 0l.38 1.15h1.203l-.981.707.38 1.15-.982-.707-.97.706.37-1.15-.982-.706H26l.358-1.15zm6.845 0l.37 1.15h1.212l-.98.707.369 1.15-.97-.707-.981.706.369-1.15-.97-.706h1.202l.38-1.15zm-30.786 2.9l.38 1.172h1.202l-.97.706.369 1.15-.98-.717-.971.717.369-1.16-.98-.707h1.223l.358-1.16zm6.845 0l.37 1.161h1.212l-.98.707.368 1.15-.97-.718-.98.717.368-1.16-.97-.707h1.202l.38-1.15zm6.834 0l.38 1.161h1.192l-.97.707.369 1.15-.981-.718-.97.717.369-1.16-.981-.707h1.213l.38-1.15zm6.845 0l.37 1.161h1.212l-.98.707.38 1.15-.982-.718-.98.717.38-1.16-.982-.707h1.203l.38-1.15zm6.835 0l.38 1.161h1.202l-.97.707.369 1.15-.981-.718-.97.717.368-1.16-.97-.707h1.203l.369-1.15zm6.845 0l.369 1.161h1.213l-.981.707.38 1.15-.981-.718-.981.717.38-1.16-.981-.707h1.212l.37-1.15zM5.845 9.968l.369 1.15h1.213l-.981.706.37 1.16-.971-.717-.981.707.37-1.15-.971-.707h1.202l.38-1.15zm6.834 0l.38 1.15h1.202l-.98.706.38 1.16-.982-.717-.98.707.38-1.15-.982-.707h1.213l.37-1.15zm6.845 0l.37 1.15h1.212l-.98.706.368 1.16-.97-.717-.98.707.368-1.15-.97-.707h1.203l.38-1.15zm6.834 0l.38 1.15h1.203l-.97.706.368 1.16-.98-.717-.97.707.368-1.15-.98-.707H26l.358-1.15zm6.845 0l.37 1.15h1.212l-.98.706.369 1.16-.97-.717-.981.707.369-1.15-.97-.707h1.202l.38-1.15zm-30.786 2.91l.38 1.15h1.202l-.97.707.369 1.16-.98-.717-.971.707.369-1.15-.98-.707h1.223l.358-1.15zm6.845 0l.37 1.15h1.212l-.98.707.368 1.15-.97-.707-.98.707.368-1.15-.97-.707h1.202l.38-1.15zm6.834 0l.38 1.15h1.192l-.97.707.369 1.16-.981-.717-.97.707.369-1.15-.981-.707h1.213l.38-1.15zm6.845 0l.37 1.15h1.212l-.98.707.38 1.16-.982-.717-.98.707.38-1.15-.982-.707h1.203l.38-1.15zm6.835 0l.38 1.15h1.202l-.97.707.369 1.16-.981-.717-.97.707.368-1.15-.97-.707h1.203l.369-1.15zm6.845 0l.369 1.15h1.213l-.981.707.38 1.16-.981-.717-.981.707.38-1.15-.981-.707h1.212l.37-1.15zM5.845 15.79l.369 1.15h1.213l-.981.706.37 1.15-.971-.718-.981.717.37-1.16-.971-.706h1.202l.38-1.14zm6.834 0l.38 1.15h1.202l-.98.706.38 1.15-.982-.718-.98.717.38-1.16-.982-.706h1.213l.37-1.14zm6.845 0l.37 1.15h1.212l-.98.706.368 1.15-.97-.718-.98.717.368-1.16-.97-.706h1.203l.38-1.14zm6.834 0l.38 1.15h1.203l-.97.706.368 1.15-.98-.718-.97.717.368-1.16-.98-.706H26l.358-1.14zm6.845 0l.37 1.15h1.212l-.98.706.369 1.15-.97-.718-.981.717.369-1.16-.97-.706h1.202l.38-1.14zm-30.786 2.9l.38 1.16h1.202l-.97.707.369 1.139-.98-.707-.971.707.369-1.15-.98-.706h1.223l.358-1.15zm6.845 0l.37 1.16h1.212l-.98.707.379 1.139-.981-.707-.98.707.379-1.15-.981-.706h1.202l.38-1.15zm6.834 0l.38 1.16h1.192l-.97.707.369 1.139-.981-.707-.97.707.369-1.15-.981-.706h1.213l.38-1.15zm6.845 0l.37 1.16h1.212l-.98.707.38 1.139-.982-.707-.98.707.38-1.15-.982-.706h1.203l.38-1.15zm6.835 0l.38 1.16h1.202l-.97.707.369 1.139-.981-.707-.97.707.368-1.15-.97-.706h1.203l.369-1.15zm6.845 0l.369 1.16h1.213l-.981.707.38 1.139-.981-.707-.981.707.38-1.15-.981-.706h1.212l.37-1.15zM5.845 21.6l.369 1.15h1.213l-.981.706.37 1.16-.971-.717-.981.707.37-1.15-.971-.706h1.202l.38-1.15zm6.834 0l.38 1.15h1.202l-.98.706.38 1.16-.982-.717-.98.707.38-1.15-.982-.706h1.213l.37-1.15zm6.845 0l.37 1.15h1.212l-.98.706.368 1.16-.97-.717-.98.707.368-1.15-.97-.706h1.203l.38-1.15zm6.834 0l.38 1.15h1.203l-.97.706.368 1.16-.98-.717-.97.707.368-1.15-.98-.706H26l.358-1.15zm6.845 0l.37 1.15h1.212l-.98.706.369 1.16-.97-.717-.981.707.369-1.15-.97-.706h1.202l.38-1.15zM2.417 24.51l.38 1.15h1.202l-.97.707.369 1.15-.98-.707-.971.707.369-1.16-.98-.707h1.223l.358-1.14zm6.845 0l.37 1.15h1.212l-.98.707.379 1.15-.981-.707-.98.707.379-1.16-.981-.707h1.202l.38-1.14zm6.834 0l.38 1.15h1.192l-.95.707.37 1.15-.981-.707-.97.707.369-1.16-.981-.707h1.213l.358-1.14zm6.845 0l.37 1.15h1.212l-.98.707.38 1.15-.982-.707-.98.707.38-1.16-.982-.707h1.203l.38-1.14zm6.835 0l.38 1.15h1.202l-.97.707.369 1.15-.981-.707-.97.707.368-1.16-.97-.707h1.203l.369-1.14zm6.845 0l.369 1.15h1.213l-.981.707.38 1.15-.981-.707-.981.707.38-1.16-.981-.707h1.212l.37-1.14z" fill="#fff"/></g></symbol></svg>