<?xml version="1.0" encoding="utf-8"?><svg xmlns="http://www.w3.org/2000/svg" xmlns:xlink="http://www.w3.org/1999/xlink"><symbol fill="none" viewBox="0 0 19 12" id="chile-flag" xmlns="http://www.w3.org/2000/svg"><g clip-path="url(#aa)" fill-rule="evenodd" clip-rule="evenodd" fill-opacity=".996"><path d="M7.125 0h14.25v6H7.125V0z" fill="#fff"/><path d="M0 0h7.125v6H0V0z" fill="#0039A6"/><path d="M4.67 4.493l-1.103-.697L2.47 4.5l.408-1.144-1.096-.706 1.356-.01.421-1.14.43 1.138 1.356.001-1.09.713.417 1.141z" fill="#fff"/><path d="M0 6h21.375v6H0V6z" fill="#D52B1E"/></g><defs><clipPath id="aa"><rect width="19" height="12" rx="1" fill="#fff"/></clipPath></defs></symbol><symbol fill="none" viewBox="0 0 54 54" id="chinese" xmlns="http://www.w3.org/2000/svg"><rect width="54" height="54" rx="4" fill="#C4C4C4"/><mask id="ba" maskUnits="userSpaceOnUse" x="0" y="0" width="54" height="54"><rect width="54" height="54" rx="4" fill="#C4C4C4"/></mask><g mask="url(#ba)"><path d="M0 0h72v54H0V0z" fill="#DE2910"/><path d="M8.64 19.98L13.5 5.4l4.86 14.58L5.4 11.07h16.2L8.64 19.98zm21.08-14.3l-5.002 1.108L28.054 2.9l-.327 5.232L24.95 3.5l4.768 2.18zm5.047 6.397l-5.04-.919L34.31 8.87l-2.33 4.696-.763-5.346 3.55 3.858zm-.736 8.974l-4.227-2.893 5.118-.222-4.043 3.337 1.485-5.192 1.667 4.97zm-6.357 5.864l-2.782-4.302 4.807 1.772-5.019 1.516 3.375-4.215-.381 5.229z" fill="#FFDE00"/></g></symbol><symbol fill="none" viewBox="0 0 19 12" id="chinese-flag" xmlns="http://www.w3.org/2000/svg"><path d="M0 1a1 1 0 011-1h17a1 1 0 011 1v10a1 1 0 01-1 1H1a1 1 0 01-1-1V1z" fill="#DE2910"/><path d="M2.28 5.272l1.283-3.847 1.282 3.848-3.42-2.352H5.7L2.28 5.273zm5.563-3.773l-1.32.292.88-1.026-.086 1.381L6.584.924l1.259.575zm1.332 1.688l-1.33-.242 1.209-.605-.615 1.24-.201-1.411.937 1.018zM8.98 5.555l-1.115-.763 1.35-.059-1.066.88.391-1.37.44 1.312zM7.303 7.102l-.734-1.135 1.268.468-1.324.4.89-1.112-.1 1.38z" fill="#FFDE00"/></symbol><symbol fill="none" viewBox="0 0 19 12" id="france-flag" xmlns="http://www.w3.org/2000/svg"><path fill-rule="evenodd" clip-rule="evenodd" d="M0 1a1 1 0 011-1h17a1 1 0 011 1v10a1 1 0 01-1 1H1a1 1 0 01-1-1V1z" fill="#fff"/><path fill-rule="evenodd" clip-rule="evenodd" d="M0 1a1 1 0 011-1h5.332v12H1a1 1 0 01-1-1V1z" fill="#00267F"/><path fill-rule="evenodd" clip-rule="evenodd" d="M12.668 0H18a1 1 0 011 1v10a1 1 0 01-1 1h-5.332V0z" fill="#F31830"/></symbol><symbol fill="none" viewBox="0 0 54 54" id="french" xmlns="http://www.w3.org/2000/svg"><rect width="54" height="54" rx="4" fill="#C4C4C4"/><mask id="ea" maskUnits="userSpaceOnUse" x="0" y="0" width="54" height="54"><rect width="54" height="54" rx="4" fill="#C4C4C4"/></mask><g mask="url(#ea)" fill-rule="evenodd" clip-rule="evenodd"><path d="M-9 0h72.083v54.063H-9V0z" fill="#fff"/><path d="M-9 0h24.024v54.063H-9V0z" fill="#00267F"/><path d="M39.06 0h24.023v54.063H39.06V0z" fill="#F31830"/></g></symbol><symbol viewBox="0 0 32.42 32.42" class="fhovered-paths" id="half-star" xmlns="http://www.w3.org/2000/svg"><path data-original="#000000" class="fhovered-path factive-path" d="M7.438 12.383l12.125-1.231L24.482 0l.5 1.135V26.58l-.5-.291-10.535 6.131 2.576-11.912z"/></symbol><symbol fill="none" viewBox="0 0 54 54" id="russian" xmlns="http://www.w3.org/2000/svg"><rect width="54" height="54" rx="4" fill="#C4C4C4"/><mask id="ga" maskUnits="userSpaceOnUse" x="0" y="0" width="54" height="54"><rect width="54" height="54" rx="4" fill="#C4C4C4"/></mask><g mask="url(#ga)" fill-rule="evenodd" clip-rule="evenodd"><path d="M-8.5 0h72v54h-72V0z" fill="#fff"/><path d="M-8.5 18h72v36h-72V18z" fill="#0039A6"/><path d="M-8.5 36h72v18h-72V36z" fill="#D52B1E"/></g></symbol><symbol fill="none" viewBox="0 0 54 54" id="spanish" xmlns="http://www.w3.org/2000/svg"><rect width="54" height="54" rx="4" fill="#C4C4C4"/><mask id="ha" maskUnits="userSpaceOnUse" x="0" y="0" width="54" height="54"><rect width="54" height="54" rx="4" fill="#C4C4C4"/></mask><g mask="url(#ha)"><path d="M-9.25 0h72v54h-72V0z" fill="#C60B1E"/><path d="M-9.25 13.5h72v27h-72v-27z" fill="#FFC400"/></g></symbol><symbol viewBox="0 0 510 510" id="star" xmlns="http://www.w3.org/2000/svg"><path d="M255 402.212l157.59 95.038-41.693-179.239L510 197.472l-183.37-15.734L255 12.75l-71.629 168.988L0 197.472l139.103 120.539L97.41 497.25z"/></symbol><symbol fill="none" viewBox="0 0 19 12" id="ukraine-flag" xmlns="http://www.w3.org/2000/svg"><path fill-rule="evenodd" clip-rule="evenodd" d="M0 0h19v12H0V0z" fill="#FFD500"/><path fill-rule="evenodd" clip-rule="evenodd" d="M0 0h19v6H0V0z" fill="#005BBB"/></symbol><symbol fill="none" viewBox="0 0 54 54" id="usa" xmlns="http://www.w3.org/2000/svg"><rect width="54" height="54" rx="4" fill="#C4C4C4"/><mask id="ka" maskUnits="userSpaceOnUse" x="0" y="0" width="54" height="54"><rect width="54" height="54" rx="4" fill="#C4C4C4"/></mask><g mask="url(#ka)" fill-rule="evenodd" clip-rule="evenodd"><path d="M-1 0h102.6v4.155H-1V0zm0 8.31h102.6v4.156H-1V8.311zm0 8.301h102.6v4.166H-1v-4.166zm0 8.311h102.6v4.156H-1v-4.156zm0 8.311h102.6v4.156H-1v-4.156zm0 8.3h102.6v4.156H-1v-4.155zm0 8.311h102.6V54H-1v-4.156z" fill="#BD3D44"/><path d="M-1 4.155h102.6v4.156H-1V4.155zm0 8.311h102.6v4.145H-1v-4.145zm0 8.3h102.6v4.156H-1v-4.155zm0 8.312h102.6v4.155H-1v-4.155zm0 8.31h102.6v4.156H-1V37.39zm0 8.301h102.6v4.155H-1V45.69z" fill="#fff"/><path d="M-1 0h41.038v29.078H-1V0z" fill="#192F5D"/><path d="M2.417 1.245l.38 1.15h1.202l-.97.706.369 1.16-.98-.717-.971.706.369-1.15-.98-.706h1.223l.358-1.15zm6.845 0l.37 1.15h1.212l-.98.706.368 1.16-.97-.717-.98.706.368-1.15-.97-.706h1.202l.38-1.15zm6.834 0l.38 1.15h1.192l-.97.706.369 1.16-.981-.717-.97.706.369-1.15-.981-.706h1.213l.38-1.15zm6.845 0l.37 1.15h1.212l-.98.706.38 1.16-.982-.717-.98.706.38-1.15-.982-.706h1.203l.38-1.15zm6.835 0l.38 1.15h1.202l-.97.706.369 1.16-.981-.717-.97.706.368-1.15-.97-.706h1.203l.369-1.15zm6.845 0l.369 1.15h1.213l-.981.706.38 1.16-.981-.717-.981.706.38-1.15-.981-.706h1.212l.37-1.15zM5.845 4.155l.369 1.15h1.213l-.981.707.359 1.15-.95-.707-.98.706.348-1.15-.95-.706h1.203l.369-1.15zm6.834 0l.38 1.15h1.202l-.98.707.38 1.15-.982-.707-.98.706.38-1.15-.982-.706h1.213l.37-1.15zm6.845 0l.37 1.15h1.212l-.98.707.368 1.15-.97-.707-.98.706.368-1.15-.97-.706h1.203l.38-1.15zm6.834 0l.38 1.15h1.203l-.981.707.38 1.15-.982-.707-.97.706.37-1.15-.982-.706H26l.358-1.15zm6.845 0l.37 1.15h1.212l-.98.707.369 1.15-.97-.707-.981.706.369-1.15-.97-.706h1.202l.38-1.15zm-30.786 2.9l.38 1.172h1.202l-.97.706.369 1.15-.98-.717-.971.717.369-1.16-.98-.707h1.223l.358-1.16zm6.845 0l.37 1.161h1.212l-.98.707.368 1.15-.97-.718-.98.717.368-1.16-.97-.707h1.202l.38-1.15zm6.834 0l.38 1.161h1.192l-.97.707.369 1.15-.981-.718-.97.717.369-1.16-.981-.707h1.213l.38-1.15zm6.845 0l.37 1.161h1.212l-.98.707.38 1.15-.982-.718-.98.717.38-1.16-.982-.707h1.203l.38-1.15zm6.835 0l.38 1.161h1.202l-.97.707.369 1.15-.981-.718-.97.717.368-1.16-.97-.707h1.203l.369-1.15zm6.845 0l.369 1.161h1.213l-.981.707.38 1.15-.981-.718-.981.717.38-1.16-.981-.707h1.212l.37-1.15zM5.845 9.968l.369 1.15h1.213l-.981.706.37 1.16-.971-.717-.981.707.37-1.15-.971-.707h1.202l.38-1.15zm6.834 0l.38 1.15h1.202l-.98.706.38 1.16-.982-.717-.98.707.38-1.15-.982-.707h1.213l.37-1.15zm6.845 0l.37 1.15h1.212l-.98.706.368 1.16-.97-.717-.98.707.368-1.15-.97-.707h1.203l.38-1.15zm6.834 0l.38 1.15h1.203l-.97.706.368 1.16-.98-.717-.97.707.368-1.15-.98-.707H26l.358-1.15zm6.845 0l.37 1.15h1.212l-.98.706.369 1.16-.97-.717-.981.707.369-1.15-.97-.707h1.202l.38-1.15zm-30.786 2.91l.38 1.15h1.202l-.97.707.369 1.16-.98-.717-.971.707.369-1.15-.98-.707h1.223l.358-1.15zm6.845 0l.37 1.15h1.212l-.98.707.368 1.15-.97-.707-.98.707.368-1.15-.97-.707h1.202l.38-1.15zm6.834 0l.38 1.15h1.192l-.97.707.369 1.16-.981-.717-.97.707.369-1.15-.981-.707h1.213l.38-1.15zm6.845 0l.37 1.15h1.212l-.98.707.38 1.16-.982-.717-.98.707.38-1.15-.982-.707h1.203l.38-1.15zm6.835 0l.38 1.15h1.202l-.97.707.369 1.16-.981-.717-.97.707.368-1.15-.97-.707h1.203l.369-1.15zm6.845 0l.369 1.15h1.213l-.981.707.38 1.16-.981-.717-.981.707.38-1.15-.981-.707h1.212l.37-1.15zM5.845 15.79l.369 1.15h1.213l-.981.706.37 1.15-.971-.718-.981.717.37-1.16-.971-.706h1.202l.38-1.14zm6.834 0l.38 1.15h1.202l-.98.706.38 1.15-.982-.718-.98.717.38-1.16-.982-.706h1.213l.37-1.14zm6.845 0l.37 1.15h1.212l-.98.706.368 1.15-.97-.718-.98.717.368-1.16-.97-.706h1.203l.38-1.14zm6.834 0l.38 1.15h1.203l-.97.706.368 1.15-.98-.718-.97.717.368-1.16-.98-.706H26l.358-1.14zm6.845 0l.37 1.15h1.212l-.98.706.369 1.15-.97-.718-.981.717.369-1.16-.97-.706h1.202l.38-1.14zm-30.786 2.9l.38 1.16h1.202l-.97.707.369 1.139-.98-.707-.971.707.369-1.15-.98-.706h1.223l.358-1.15zm6.845 0l.37 1.16h1.212l-.98.707.379 1.139-.981-.707-.98.707.379-1.15-.981-.706h1.202l.38-1.15zm6.834 0l.38 1.16h1.192l-.97.707.369 1.139-.981-.707-.97.707.369-1.15-.981-.706h1.213l.38-1.15zm6.845 0l.37 1.16h1.212l-.98.707.38 1.139-.982-.707-.98.707.38-1.15-.982-.706h1.203l.38-1.15zm6.835 0l.38 1.16h1.202l-.97.707.369 1.139-.981-.707-.97.707.368-1.15-.97-.706h1.203l.369-1.15zm6.845 0l.369 1.16h1.213l-.981.707.38 1.139-.981-.707-.981.707.38-1.15-.981-.706h1.212l.37-1.15zM5.845 21.6l.369 1.15h1.213l-.981.706.37 1.16-.971-.717-.981.707.37-1.15-.971-.706h1.202l.38-1.15zm6.834 0l.38 1.15h1.202l-.98.706.38 1.16-.982-.717-.98.707.38-1.15-.982-.706h1.213l.37-1.15zm6.845 0l.37 1.15h1.212l-.98.706.368 1.16-.97-.717-.98.707.368-1.15-.97-.706h1.203l.38-1.15zm6.834 0l.38 1.15h1.203l-.97.706.368 1.16-.98-.717-.97.707.368-1.15-.98-.706H26l.358-1.15zm6.845 0l.37 1.15h1.212l-.98.706.369 1.16-.97-.717-.981.707.369-1.15-.97-.706h1.202l.38-1.15zM2.417 24.51l.38 1.15h1.202l-.97.707.369 1.15-.98-.707-.971.707.369-1.16-.98-.707h1.223l.358-1.14zm6.845 0l.37 1.15h1.212l-.98.707.379 1.15-.981-.707-.98.707.379-1.16-.981-.707h1.202l.38-1.14zm6.834 0l.38 1.15h1.192l-.95.707.37 1.15-.981-.707-.97.707.369-1.16-.981-.707h1.213l.358-1.14zm6.845 0l.37 1.15h1.212l-.98.707.38 1.15-.982-.707-.98.707.38-1.16-.982-.707h1.203l.38-1.14zm6.835 0l.38 1.15h1.202l-.97.707.369 1.15-.981-.707-.97.707.368-1.16-.97-.707h1.203l.369-1.14zm6.845 0l.369 1.15h1.213l-.981.707.38 1.15-.981-.707-.981.707.38-1.16-.981-.707h1.212l.37-1.14z" fill="#fff"/></g></symbol><symbol fill="none" viewBox="0 0 19 12" id="usa-flag" xmlns="http://www.w3.org/2000/svg"><mask id="la" maskUnits="userSpaceOnUse" x="0" y="0" width="19" height="12"><rect width="19" height="12" rx=".936" fill="#C4C4C4"/></mask><g mask="url(#la)" fill-rule="evenodd" clip-rule="evenodd"><path d="M0 0h19v.923H0V0zm0 1.847h19v.923H0v-.923zM0 3.69h19v.926H0V3.69zm0 1.847h19v.924H0v-.924zm0 1.847h19v.924H0v-.924zM0 9.23h19v.923H0V9.23zm0 1.847h19V12H0v-.923z" fill="#BD3D44"/><path d="M-.222.923h22.8v.924h-22.8V.923zm0 1.847h22.8v.921h-22.8v-.92zm0 1.845h22.8v.923h-22.8v-.923zm0 1.847h22.8v.923h-22.8v-.923zm0 1.847h22.8v.923h-22.8v-.923zm0 1.844h22.8v.924h-22.8v-.924z" fill="#fff"/><path d="M-.222 0h9.12v6.462h-9.12V0z" fill="#192F5D"/><path d="M.537.277l.084.255H.89L.673.689l.082.258-.218-.16-.216.158.083-.256L.186.532h.271l.08-.255zm1.521 0l.082.255h.27l-.218.157.082.258-.216-.16-.218.158.082-.256-.215-.157h.267l.084-.255zm1.519 0l.084.255h.265l-.215.157.082.258-.218-.16-.216.158.082-.256-.218-.157h.27l.084-.255zm1.521 0l.082.255h.27l-.218.157.084.258-.218-.16-.218.158.084-.256-.218-.157h.268l.084-.255zm1.519 0L6.7.532h.267l-.215.157.082.258-.218-.16L6.4.945l.082-.256-.215-.157h.267l.082-.255zm1.52 0l.083.255h.27l-.22.157.085.258-.218-.16-.218.158.084-.256-.218-.157h.27l.082-.255zM1.3.923l.082.256h.27l-.219.157.08.255-.21-.157-.219.157.078-.255-.211-.157h.267L1.3.923zm1.519 0l.084.256h.267l-.218.157.085.255-.218-.157-.218.157.084-.255-.218-.157h.27l.082-.256zm1.52 0l.083.256h.27l-.219.157.082.255-.215-.157-.218.157.082-.255-.216-.157h.267L4.34.923zm1.52 0l.084.256h.267l-.218.157.084.255-.218-.157-.215.157.082-.255-.218-.157h.272l.08-.256zm1.52 0l.083.256h.27l-.219.157.082.255-.215-.157-.218.157.082-.255-.216-.157h.267L7.38.923zm-6.84.645l.083.26H.89l-.216.157.082.256-.218-.16-.216.16.083-.258-.218-.157h.271l.08-.258zm1.52 0l.082.258h.27l-.218.157.082.255-.216-.16-.218.16.082-.258-.215-.157h.267l.084-.255zm1.519 0l.084.258h.265l-.215.157.082.255-.218-.16-.216.16.082-.258-.218-.157h.27l.084-.255zm1.521 0l.082.258h.27l-.218.157.084.255-.218-.16-.218.16.084-.258-.218-.157h.268l.084-.255zm1.519 0l.084.258h.267l-.215.157.082.255-.218-.16-.216.16.082-.258-.215-.157h.267l.082-.255zm1.52 0l.083.258h.27l-.219.157.085.255-.218-.16-.218.16.084-.258-.218-.157h.27l.082-.255zM1.3 2.215l.082.255h.27l-.219.157.082.258-.215-.16-.218.158.082-.256-.216-.157h.267l.085-.255zm1.519 0l.084.255h.267l-.218.157.085.258-.218-.16-.218.158.084-.256-.218-.157h.27l.082-.255zm1.52 0l.083.255h.27l-.219.157.082.258-.215-.16-.218.158.082-.256-.216-.157h.267l.085-.255zm1.52 0l.084.255h.267l-.216.157.082.258-.218-.16-.215.158.082-.256-.218-.157h.272l.08-.255zm1.52 0l.083.255h.27l-.219.157.082.258-.215-.16-.218.158.082-.256-.216-.157h.267l.085-.255zm-6.84.647l.083.255H.89l-.216.157.082.258-.218-.16-.216.158.083-.256-.218-.157h.271l.08-.255zm1.52 0l.082.255h.27l-.218.157.082.256-.216-.157-.218.157.082-.256-.215-.157h.267l.084-.255zm1.519 0l.084.255h.265l-.215.157.082.258-.218-.16-.216.158.082-.256-.218-.157h.27l.084-.255zm1.521 0l.082.255h.27l-.218.157.084.258-.218-.16-.218.158.084-.256-.218-.157h.268l.084-.255zm1.519 0l.084.255h.267l-.215.157.082.258-.218-.16-.216.158.082-.256-.215-.157h.267l.082-.255zm1.52 0l.083.255h.27l-.219.157.085.258-.218-.16-.218.158.084-.256-.218-.157h.27l.082-.255zM1.3 3.509l.082.255h.27l-.219.157.082.256-.215-.16-.218.16.082-.258-.216-.157h.267l.085-.253zm1.519 0l.084.255h.267l-.218.157.085.256-.218-.16-.218.16.084-.258-.218-.157h.27l.082-.253zm1.52 0l.083.255h.27l-.219.157.082.256-.215-.16-.218.16.082-.258-.216-.157h.267l.085-.253zm1.52 0l.084.255h.267l-.216.157.082.256-.218-.16-.215.16.082-.258-.218-.157h.272l.08-.253zm1.52 0l.083.255h.27l-.219.157.082.256-.215-.16-.218.16.082-.258-.216-.157h.267l.085-.253zm-6.84.644l.083.258H.89l-.216.157.082.253-.218-.157-.216.157.083-.255-.218-.157h.271l.08-.256zm1.52 0l.082.258h.27l-.218.157.084.253-.218-.157-.218.157.085-.255-.218-.157h.267l.084-.256zm1.519 0l.084.258h.265l-.215.157.082.253-.218-.157-.216.157.082-.255-.218-.157h.27l.084-.256zm1.521 0l.082.258h.27l-.218.157.084.253-.218-.157-.218.157.084-.255-.218-.157h.268l.084-.256zm1.519 0l.084.258h.267l-.215.157.082.253-.218-.157-.216.157.082-.255-.215-.157h.267l.082-.256zm1.52 0l.083.258h.27l-.219.157.085.253-.218-.157-.218.157.084-.255-.218-.157h.27l.082-.256zM1.3 4.8l.082.255h.27l-.219.157.082.258-.215-.16-.218.158.082-.256-.216-.157h.267L1.3 4.8zm1.519 0l.084.255h.267l-.218.157.085.258-.218-.16-.218.158.084-.256-.218-.157h.27l.082-.255zm1.52 0l.083.255h.27l-.219.157.082.258-.215-.16-.218.158.082-.256-.216-.157h.267L4.34 4.8zm1.52 0l.084.255h.267l-.216.157.082.258-.218-.16-.215.158.082-.256-.218-.157h.272l.08-.255zm1.52 0l.083.255h.27l-.219.157.082.258-.215-.16-.218.158.082-.256-.216-.157h.267L7.38 4.8zm-6.84.647l.083.255H.89l-.216.157.082.256-.218-.157-.216.157.083-.258L.186 5.7h.271l.08-.253zm1.52 0l.082.255h.27l-.218.157.084.256-.218-.157-.218.157.085-.258-.218-.157h.267l.084-.253zm1.519 0l.084.255h.265l-.21.157.081.256-.218-.157-.215.157.082-.258-.218-.157h.27l.079-.253zm1.521 0l.082.255h.27l-.218.157.084.256-.218-.157-.218.157.084-.258-.218-.157h.268l.084-.253zm1.519 0l.084.255h.267l-.215.157.082.256-.218-.157-.216.157.082-.258-.215-.157h.267l.082-.253zm1.52 0l.083.255h.27l-.219.157.085.256-.218-.157-.218.157.084-.258-.218-.157h.27l.082-.253z" fill="#fff"/></g></symbol></svg>